<?xml version="1.0" encoding="UTF-8" standalone="no"?>
<!-- Created with Inkscape (http://www.inkscape.org/) -->

<svg
   xmlns:dc="http://purl.org/dc/elements/1.1/"
   xmlns:cc="http://creativecommons.org/ns#"
   xmlns:rdf="http://www.w3.org/1999/02/22-rdf-syntax-ns#"
   xmlns:svg="http://www.w3.org/2000/svg"
   xmlns="http://www.w3.org/2000/svg"
   xmlns:sodipodi="http://sodipodi.sourceforge.net/DTD/sodipodi-0.dtd"
   xmlns:inkscape="http://www.inkscape.org/namespaces/inkscape"
   width="85mm"
   height="85mm"
   viewBox="0 0 301.1811 301.18109"
   id="svg2"
   version="1.1"
   inkscape:version="0.91 r13725"
   sodipodi:docname="google_scholar_logo.svg">
  <defs
     id="defs4" />
  <sodipodi:namedview
     id="base"
     pagecolor="#ffffff"
     bordercolor="#666666"
     borderopacity="1.0"
     inkscape:pageopacity="0.0"
     inkscape:pageshadow="2"
     inkscape:zoom="1.4"
     inkscape:cx="-81.353514"
     inkscape:cy="99.918566"
     inkscape:document-units="px"
     inkscape:current-layer="layer1"
     showgrid="false"
     fit-margin-top="0"
     fit-margin-left="0"
     fit-margin-right="0"
     fit-margin-bottom="0"
     inkscape:window-width="1551"
     inkscape:window-height="876"
     inkscape:window-x="49"
     inkscape:window-y="24"
     inkscape:window-maximized="1" />
  <metadata
     id="metadata7">
    <rdf:RDF>
      <cc:Work
         rdf:about="">
        <dc:format>image/svg+xml</dc:format>
        <dc:type
           rdf:resource="http://purl.org/dc/dcmitype/StillImage" />
        <dc:title />
      </cc:Work>
    </rdf:RDF>
  </metadata>
  <g
     inkscape:label="Layer 1"
     inkscape:groupmode="layer"
     id="layer1"
     transform="translate(-479.5678,-188.24254)">
    <path
       style="fill:currentColor;fill-opacity:1"
       d="m 603.29609,488.12426 c -27.38701,-2.58325 -48.6522,-14.11613 -58.37003,-31.65618 -3.4754,-6.27287 -3.82609,-8.04595 -3.82609,-19.34506 0,-10.95957 0.45117,-13.41618 3.7929,-20.65246 10.01785,-21.69292 36.49059,-35.64484 75.75267,-39.9239 7.74176,-0.84376 14.07595,-2.00701 14.07595,-2.58499 0,-0.578 -1.62037,-3.54339 -3.60082,-6.58978 -3.26949,-5.02923 -3.60083,-6.65346 -3.60083,-17.65134 l 0,-12.11245 -7.28852,5.7e-4 c -25.45226,0.002 -45.5381,-11.53879 -55.63351,-31.96546 -3.67917,-7.4443 -4.84052,-11.61268 -5.43859,-19.52048 l -0.76045,-10.05491 -28.93753,0 -28.93753,0 43.19505,-43.20994 43.19504,-43.20993 86.38632,0 86.38632,0 -7.48801,7.56697 -7.48801,7.56697 0,11.35415 c 0,8.16002 0.49877,11.64871 1.77293,12.40126 4.40971,2.60439 4.77403,6.52013 4.77403,51.311 0,30.31688 -0.47245,45.58072 -1.47925,47.79039 -3.3134,7.27211 -14.67838,7.27211 -17.99178,0 -2.09357,-4.59489 -2.05713,-90.77046 0.0403,-95.37389 0.83576,-1.8343 2.01422,-3.33509 2.61878,-3.33509 0.60457,0 1.09388,-3.38806 1.08736,-7.52901 l -0.0118,-7.529 -19.01638,19.11768 c -18.79807,18.8982 -18.99838,19.16126 -17.44808,22.91435 0.8639,2.09142 1.59013,9.97182 1.61694,17.5453 0.0747,21.08221 -2.1049,25.59941 -21.57414,44.71501 -15.73245,15.44663 -18.19004,18.99677 -18.19004,26.27665 0,4.58026 5.43684,10.4 25.42222,27.21274 13.9266,11.71576 20.63468,19.83738 24.06107,29.13123 3.85507,10.45662 4.53952,19.17344 2.3355,29.744 -8.13467,39.01406 -53.4692,62.87424 -109.43203,57.5956 z m 44.09723,-15.69417 c 6.93291,-0.91777 13.28166,-2.83082 19.64791,-5.92043 14.65431,-7.11189 21.38896,-17.30412 21.33658,-32.2907 -0.0514,-14.70148 -6.59387,-24.10863 -27.69248,-39.81797 l -11.71905,-8.72561 -14.65141,0.77493 c -23.04038,1.21864 -38.85637,6.4919 -49.8418,16.61793 -8.32006,7.66914 -11.29598,14.43076 -11.2802,25.6298 0.0328,23.29816 18.56474,39.60852 49.74409,43.78088 10.74212,1.4375 13.26677,1.43246 24.45636,-0.0488 z m 4.03381,-150.05427 c 3.78685,-1.81574 8.40301,-5.29131 10.25816,-7.72353 13.21357,-17.32388 6.81963,-57.06671 -12.5994,-78.31423 -8.49248,-9.29211 -17.28111,-13.22009 -27.50502,-12.29301 -19.3732,1.7567 -30.48688,15.46652 -30.4957,37.61945 -0.0122,30.71326 16.51105,59.01039 37.52405,64.26225 6.18269,1.54526 15.0756,0.16133 22.81791,-3.55093 z"
       id="path4201"
       inkscape:connector-curvature="0" />
  </g>
</svg>
