<?xml version="1.0" encoding="UTF-8" standalone="no"?>
<!-- Created with Inkscape (http://www.inkscape.org/) -->
<svg
   xmlns:svg="http://www.w3.org/2000/svg"
   xmlns="http://www.w3.org/2000/svg"
   xmlns:xlink="http://www.w3.org/1999/xlink"
   xmlns:inkscape="http://www.inkscape.org/namespaces/inkscape"
   version="1.0"
   width="128"
   height="128"
   id="svg2">
  <defs
     id="defs4">
    <linearGradient
       id="linearGradient3640">
      <stop
         id="stop3642"
         style="stop-color:#ffdc8b;stop-opacity:1"
         offset="0" />
      <stop
         id="stop3644"
         style="stop-color:#ffecb8;stop-opacity:1"
         offset="1" />
    </linearGradient>
    <linearGradient
       id="linearGradient3608">
      <stop
         id="stop3610"
         style="stop-color:#a166d7;stop-opacity:1"
         offset="0" />
      <stop
         id="stop3612"
         style="stop-color:#fc76fd;stop-opacity:1"
         offset="1" />
    </linearGradient>
    <linearGradient
       id="linearGradient3377">
      <stop
         id="stop3379"
         style="stop-color:#00339e;stop-opacity:1"
         offset="0" />
      <stop
         id="stop3387"
         style="stop-color:#0062c8;stop-opacity:1"
         offset="0.3243131" />
      <stop
         id="stop3381"
         style="stop-color:#4fb0ec;stop-opacity:1"
         offset="1" />
    </linearGradient>
    <linearGradient
       id="linearGradient3346">
      <stop
         id="stop3348"
         style="stop-color:#ffffff;stop-opacity:1"
         offset="0" />
      <stop
         id="stop3350"
         style="stop-color:#b5daff;stop-opacity:1"
         offset="1" />
    </linearGradient>
    <linearGradient
       id="linearGradient3338">
      <stop
         id="stop3340"
         style="stop-color:#ffffff;stop-opacity:1"
         offset="0" />
      <stop
         id="stop3342"
         style="stop-color:#d0e9ff;stop-opacity:1"
         offset="1" />
    </linearGradient>
    <linearGradient
       id="linearGradient3330">
      <stop
         id="stop3332"
         style="stop-color:#badeff;stop-opacity:1"
         offset="0" />
      <stop
         id="stop3334"
         style="stop-color:#ffffff;stop-opacity:1"
         offset="1" />
    </linearGradient>
    <linearGradient
       id="linearGradient3324">
      <stop
         id="stop3326"
         style="stop-color:#e3effa;stop-opacity:1"
         offset="0" />
      <stop
         id="stop3328"
         style="stop-color:#ffffff;stop-opacity:1"
         offset="1" />
    </linearGradient>
    <linearGradient
       id="linearGradient3253">
      <stop
         id="stop3255"
         style="stop-color:#ffffff;stop-opacity:1"
         offset="0" />
      <stop
         id="stop3257"
         style="stop-color:#ffffff;stop-opacity:0.5"
         offset="1" />
    </linearGradient>
    <linearGradient
       id="linearGradient3238">
      <stop
         id="stop3240"
         style="stop-color:#21b933;stop-opacity:1"
         offset="0" />
      <stop
         id="stop3246"
         style="stop-color:#35cd35;stop-opacity:1"
         offset="0.15053172" />
      <stop
         id="stop3242"
         style="stop-color:#d2ffd1;stop-opacity:1"
         offset="1" />
    </linearGradient>
    <linearGradient
       id="linearGradient3228">
      <stop
         id="stop3230"
         style="stop-color:#037806;stop-opacity:1"
         offset="0" />
      <stop
         id="stop3232"
         style="stop-color:#39b71d;stop-opacity:1"
         offset="1" />
    </linearGradient>
    <linearGradient
       id="linearGradient3216">
      <stop
         id="stop3218"
         style="stop-color:#306266;stop-opacity:1"
         offset="0" />
      <stop
         id="stop3224"
         style="stop-color:#026404;stop-opacity:1"
         offset="0.5" />
      <stop
         id="stop3220"
         style="stop-color:#002931;stop-opacity:1"
         offset="1" />
    </linearGradient>
    <linearGradient
       id="linearGradient3202">
      <stop
         id="stop3204"
         style="stop-color:#ffffff;stop-opacity:1"
         offset="0" />
      <stop
         id="stop3206"
         style="stop-color:#ffffff;stop-opacity:0.5"
         offset="1" />
    </linearGradient>
    <linearGradient
       id="linearGradient3194">
      <stop
         id="stop3196"
         style="stop-color:#febf2d;stop-opacity:1"
         offset="0" />
      <stop
         id="stop3198"
         style="stop-color:#fff0c3;stop-opacity:1"
         offset="1" />
    </linearGradient>
    <linearGradient
       id="linearGradient3186">
      <stop
         id="stop3188"
         style="stop-color:#ffec2d;stop-opacity:1"
         offset="0" />
      <stop
         id="stop3190"
         style="stop-color:#ff6d00;stop-opacity:1"
         offset="1" />
    </linearGradient>
    <linearGradient
       id="linearGradient3170">
      <stop
         id="stop3172"
         style="stop-color:#820000;stop-opacity:1"
         offset="0" />
      <stop
         id="stop3174"
         style="stop-color:#fe3200;stop-opacity:1"
         offset="1" />
    </linearGradient>
    <linearGradient
       x1="40.437424"
       y1="117.113"
       x2="77.453217"
       y2="17.885784"
       id="linearGradient3176"
       xlink:href="#linearGradient3170"
       gradientUnits="userSpaceOnUse" />
    <linearGradient
       x1="342.52042"
       y1="347.76782"
       x2="362.69943"
       y2="291.77756"
       id="linearGradient3192"
       xlink:href="#linearGradient3186"
       gradientUnits="userSpaceOnUse" />
    <linearGradient
       x1="399.44385"
       y1="319.77267"
       x2="365.22757"
       y2="245.7411"
       id="linearGradient3200"
       xlink:href="#linearGradient3194"
       gradientUnits="userSpaceOnUse" />
    <linearGradient
       x1="42.92588"
       y1="107.47023"
       x2="12.753342"
       y2="22.03125"
       id="linearGradient3208"
       xlink:href="#linearGradient3202"
       gradientUnits="userSpaceOnUse" />
    <filter
       id="filter3210">
      <feGaussianBlur
         id="feGaussianBlur3212"
         stdDeviation="0.48975825"
         inkscape:collect="always" />
    </filter>
    <linearGradient
       x1="30.422007"
       y1="16.662317"
       x2="63.775894"
       y2="16.662317"
       id="linearGradient3222"
       xlink:href="#linearGradient3216"
       gradientUnits="userSpaceOnUse" />
    <linearGradient
       x1="350.66193"
       y1="264.17706"
       x2="350.66193"
       y2="249.70663"
       id="linearGradient3234"
       xlink:href="#linearGradient3228"
       gradientUnits="userSpaceOnUse" />
    <linearGradient
       x1="351.29095"
       y1="258.9733"
       x2="352.77774"
       y2="244.67725"
       id="linearGradient3244"
       xlink:href="#linearGradient3238"
       gradientUnits="userSpaceOnUse" />
    <radialGradient
       cx="36.254799"
       cy="19.631256"
       r="7.3533807"
       fx="36.254799"
       fy="19.631256"
       id="radialGradient3276"
       xlink:href="#linearGradient3253"
       gradientUnits="userSpaceOnUse"
       gradientTransform="matrix(1.0732585,-6.00932e-8,6.8392716e-8,1.221487,-2.6559738,-4.3434241)" />
    <filter
       id="filter3283">
      <feGaussianBlur
         id="feGaussianBlur3285"
         stdDeviation="0.29866253"
         inkscape:collect="always" />
    </filter>
    <linearGradient
       x1="47.892616"
       y1="101.58389"
       x2="47.892616"
       y2="28.659286"
       id="linearGradient3322"
       xlink:href="#linearGradient3324"
       gradientUnits="userSpaceOnUse" />
    <linearGradient
       x1="354.39694"
       y1="332.65366"
       x2="366.63858"
       y2="264.78787"
       id="linearGradient3336"
       xlink:href="#linearGradient3330"
       gradientUnits="userSpaceOnUse" />
    <linearGradient
       x1="105.2349"
       y1="85.691277"
       x2="100.08054"
       y2="70.442955"
       id="linearGradient3344"
       xlink:href="#linearGradient3338"
       gradientUnits="userSpaceOnUse" />
    <linearGradient
       x1="409.90408"
       y1="317.20386"
       x2="405.43243"
       y2="305.46292"
       id="linearGradient3364"
       xlink:href="#linearGradient3346"
       gradientUnits="userSpaceOnUse"
       gradientTransform="matrix(1.1788378,0,0,1.1788378,-376.90903,-289.06847)" />
    <linearGradient
       x1="350.33786"
       y1="339.32706"
       x2="385.93399"
       y2="257.69687"
       id="linearGradient3395"
       xlink:href="#linearGradient3377"
       gradientUnits="userSpaceOnUse"
       gradientTransform="translate(-304.57144,-234.07646)" />
    <linearGradient
       x1="350.33786"
       y1="339.32706"
       x2="385.93399"
       y2="257.69687"
       id="linearGradient3418"
       xlink:href="#linearGradient3377"
       gradientUnits="userSpaceOnUse"
       gradientTransform="translate(-304.57144,-234.07646)" />
    <filter
       id="filter3425">
      <feGaussianBlur
         id="feGaussianBlur3427"
         stdDeviation="0.30246456"
         inkscape:collect="always" />
    </filter>
    <filter
       id="filter3437">
      <feGaussianBlur
         id="feGaussianBlur3439"
         stdDeviation="0.90128066"
         inkscape:collect="always" />
    </filter>
    <filter
       id="filter3443">
      <feGaussianBlur
         id="feGaussianBlur3445"
         stdDeviation="1.1174084"
         inkscape:collect="always" />
    </filter>
    <linearGradient
       x1="354.39694"
       y1="332.65366"
       x2="366.63858"
       y2="264.78787"
       id="linearGradient3473"
       xlink:href="#linearGradient3330"
       gradientUnits="userSpaceOnUse"
       gradientTransform="matrix(1.2451815,0,0,1.2451815,-86.582415,-81.962194)" />
    <linearGradient
       x1="354.39694"
       y1="332.65366"
       x2="366.63858"
       y2="264.78787"
       id="linearGradient3477"
       xlink:href="#linearGradient3330"
       gradientUnits="userSpaceOnUse"
       gradientTransform="translate(2.6160041,6.3694014)" />
    <linearGradient
       x1="354.39694"
       y1="332.65366"
       x2="366.63858"
       y2="264.78787"
       id="linearGradient3481"
       xlink:href="#linearGradient3330"
       gradientUnits="userSpaceOnUse"
       gradientTransform="translate(4.3220938,12.397585)" />
    <linearGradient
       x1="354.39694"
       y1="332.65366"
       x2="366.63858"
       y2="264.78787"
       id="linearGradient3485"
       xlink:href="#linearGradient3330"
       gradientUnits="userSpaceOnUse"
       gradientTransform="translate(6.59688,18.653247)" />
    <linearGradient
       x1="354.39694"
       y1="332.65366"
       x2="366.63858"
       y2="264.78787"
       id="linearGradient3489"
       xlink:href="#linearGradient3330"
       gradientUnits="userSpaceOnUse"
       gradientTransform="translate(8.8716662,25.136388)" />
    <linearGradient
       x1="354.39694"
       y1="332.65366"
       x2="366.63858"
       y2="264.78787"
       id="linearGradient3493"
       xlink:href="#linearGradient3330"
       gradientUnits="userSpaceOnUse"
       gradientTransform="translate(11.60141,32.074486)" />
    <linearGradient
       x1="354.39694"
       y1="332.65366"
       x2="366.63858"
       y2="264.78787"
       id="linearGradient3497"
       xlink:href="#linearGradient3330"
       gradientUnits="userSpaceOnUse"
       gradientTransform="translate(14.444893,39.58128)" />
    <linearGradient
       x1="354.39694"
       y1="332.65366"
       x2="366.63858"
       y2="264.78787"
       id="linearGradient3501"
       xlink:href="#linearGradient3330"
       gradientUnits="userSpaceOnUse"
       gradientTransform="translate(17.174636,47.88425)" />
    <linearGradient
       x1="354.39694"
       y1="332.65366"
       x2="366.63858"
       y2="264.78787"
       id="linearGradient3505"
       xlink:href="#linearGradient3330"
       gradientUnits="userSpaceOnUse"
       gradientTransform="translate(19.904379,55.846002)" />
    <linearGradient
       x1="354.39694"
       y1="332.65366"
       x2="366.63858"
       y2="264.78787"
       id="linearGradient3509"
       xlink:href="#linearGradient3330"
       gradientUnits="userSpaceOnUse"
       gradientTransform="translate(23.657776,64.262711)" />
    <linearGradient
       x1="354.39694"
       y1="332.65366"
       x2="366.63858"
       y2="264.78787"
       id="linearGradient3536"
       xlink:href="#linearGradient3330"
       gradientUnits="userSpaceOnUse"
       gradientTransform="translate(-1.399757,-3.5771567)" />
    <linearGradient
       x1="354.39694"
       y1="332.65366"
       x2="366.63858"
       y2="264.78787"
       id="linearGradient3563"
       xlink:href="#linearGradient3330"
       gradientUnits="userSpaceOnUse"
       gradientTransform="translate(0.4665857,0.9331713)" />
    <linearGradient
       x1="354.39694"
       y1="332.65366"
       x2="366.63858"
       y2="264.78787"
       id="linearGradient3565"
       xlink:href="#linearGradient3330"
       gradientUnits="userSpaceOnUse"
       gradientTransform="translate(3.4216282,2.4884569)" />
    <linearGradient
       x1="354.39694"
       y1="332.65366"
       x2="366.63858"
       y2="264.78787"
       id="linearGradient3567"
       xlink:href="#linearGradient3330"
       gradientUnits="userSpaceOnUse"
       gradientTransform="translate(1.7108141,-1.399757)" />
    <linearGradient
       x1="354.39694"
       y1="332.65366"
       x2="366.63858"
       y2="264.78787"
       id="linearGradient3569"
       xlink:href="#linearGradient3330"
       gradientUnits="userSpaceOnUse"
       gradientTransform="translate(0,-0.3110571)" />
    <linearGradient
       x1="354.39694"
       y1="332.65366"
       x2="366.63858"
       y2="264.78787"
       id="linearGradient3571"
       xlink:href="#linearGradient3330"
       gradientUnits="userSpaceOnUse"
       gradientTransform="translate(-0.1555286,-0.6221142)" />
    <linearGradient
       x1="354.39694"
       y1="332.65366"
       x2="366.63858"
       y2="264.78787"
       id="linearGradient3573"
       xlink:href="#linearGradient3330"
       gradientUnits="userSpaceOnUse"
       gradientTransform="translate(-0.1555286,-0.4665857)" />
    <linearGradient
       x1="354.39694"
       y1="332.65366"
       x2="366.63858"
       y2="264.78787"
       id="linearGradient3575"
       xlink:href="#linearGradient3330"
       gradientUnits="userSpaceOnUse"
       gradientTransform="translate(0,-0.4665857)" />
    <linearGradient
       x1="55.679222"
       y1="94.561363"
       x2="55.679222"
       y2="28.45875"
       id="linearGradient3614"
       xlink:href="#linearGradient3608"
       gradientUnits="userSpaceOnUse" />
    <linearGradient
       x1="55.679222"
       y1="94.561363"
       x2="55.679222"
       y2="28.45875"
       id="linearGradient3624"
       xlink:href="#linearGradient3608"
       gradientUnits="userSpaceOnUse" />
    <linearGradient
       x1="55.679222"
       y1="94.561363"
       x2="55.679222"
       y2="28.45875"
       id="linearGradient3627"
       xlink:href="#linearGradient3608"
       gradientUnits="userSpaceOnUse" />
    <linearGradient
       x1="80.626335"
       y1="95.05101"
       x2="62.70937"
       y2="25.053381"
       id="linearGradient3646"
       xlink:href="#linearGradient3640"
       gradientUnits="userSpaceOnUse" />
  </defs>
  <g
     transform="translate(-304.57144,-234.07646)"
     id="layer1">
    <path
       d="M 309.37023,272.0556 L 335.98448,346.70068 C 337.7726,351.71582 342.67277,354.55221 349.67099,353.38841 L 418.10355,342.00814 C 425.7578,340.73525 429.14407,327.6832 426.54098,322.2827 L 396.32956,259.60469 C 392.89375,252.47661 386.52878,247.81374 375.48873,248.87322 L 319.57621,254.23895 C 317.02152,254.48412 312.94376,256.39422 311.55108,260.26761 L 309.93009,264.77596 C 308.86603,267.73538 308.42478,269.4039 309.37023,272.0556 z"
       id="path3441"
       style="opacity:0.5;fill:#000000;fill-opacity:1;fill-rule:evenodd;stroke:none;stroke-width:1px;stroke-linecap:butt;stroke-linejoin:miter;stroke-opacity:1;filter:url(#filter3443)" />
    <path
       d="M 3.8693451,36.246778 L 30.483597,110.89186 C 32.271716,115.907 37.171893,118.74339 44.170109,117.57959 L 112.60267,106.19932 C 120.25692,104.92643 123.64319,91.874381 121.0401,86.473876 L 90.828676,23.795869 C 87.392871,16.667789 81.027903,12.004923 69.987849,13.064399 L 14.075334,18.430133 C 11.520641,18.675298 7.4428785,20.585404 6.0501955,24.458791 L 4.4292125,28.967136 C 3.3651464,31.926561 2.9238966,33.595075 3.8693451,36.246778 z"
       transform="translate(304.57144,234.07646)"
       id="path2396"
       style="opacity:1;fill:url(#linearGradient3176);fill-opacity:1;fill-rule:evenodd;stroke:none;stroke-width:1px;stroke-linecap:butt;stroke-linejoin:miter;stroke-opacity:1" />
    <path
       d="M 312.13605,272.15518 L 337.23211,343.35021 C 338.89087,348.05595 341.7151,349.48689 348.26933,348.37313 L 416.51981,336.77538 C 422.9168,335.68834 424.24818,324.77801 422.87133,321.94535 L 391.44928,257.29895 C 389.33294,252.94488 384.97448,248.76409 374.6275,249.74416 L 321.2603,254.79914 C 318.74511,255.03738 314.48692,255.4134 312.99752,259.45889 L 311.14855,264.48103 C 310.13035,267.24668 311.259,269.66707 312.13605,272.15518 z"
       id="path3168"
       style="opacity:1;fill:url(#linearGradient3192);fill-opacity:1;fill-rule:evenodd;stroke:none;stroke-width:1px;stroke-linecap:butt;stroke-linejoin:miter;stroke-opacity:1" />
    <path
       d="M 339.43162,335.21204 C 341.31033,341.89733 345.84447,342.45382 354.31797,341.00479 L 418.27941,330.06689 C 424.67526,328.97315 424.24818,324.77801 422.87133,321.94535 L 391.44928,257.29895 C 389.51633,253.95098 384.97448,248.76409 374.6275,249.74416 L 321.2603,254.79914 C 319.39964,254.97538 316.5851,255.22703 314.64327,256.98387 C 313.96019,257.60187 312.80393,259.67733 313.65737,262.0983 L 339.43162,335.21204 z"
       id="path3178"
       style="opacity:1;fill:url(#linearGradient3200);fill-opacity:1;fill-rule:evenodd;stroke:none;stroke-width:1px;stroke-linecap:butt;stroke-linejoin:miter;stroke-opacity:1" />
    <path
       d="M 11.3125,22.03125 C 10.874166,22.272063 10.446663,22.558684 10.0625,22.90625 C 9.3794202,23.52425 8.24031,25.61028 9.09375,28.03125 L 34.875,101.125 C 36.75371,107.81029 41.2765,108.38653 49.75,106.9375 L 113.71875,96 C 118.09591,95.25147 119.25656,93.035376 119.125,90.8125 C 118.32038,91.813025 116.91491,92.634313 114.59375,93.03125 L 50.625,103.96875 C 42.1515,105.41778 37.628711,104.84154 35.75,98.15625 L 10.625,26.8125 C 9.888656,24.720428 10.651018,22.889871 11.3125,22.03125 z"
       transform="translate(304.57144,234.07646)"
       id="path3182"
       style="opacity:1;fill:url(#linearGradient3208);fill-opacity:1;fill-rule:evenodd;stroke:none;stroke-width:1px;stroke-linecap:butt;stroke-linejoin:miter;stroke-opacity:1;filter:url(#filter3210)" />
    <path
       d="M 113.42349,89.888493 L 77.893238,20.801898 L 15.943061,26.116251 L 40.844603,101.73191 L 113.42349,89.888493 z"
       transform="translate(304.57144,234.07646)"
       id="path3630"
       style="fill:url(#linearGradient3646);fill-opacity:1;fill-rule:evenodd;stroke:none;stroke-width:1px;stroke-linecap:butt;stroke-linejoin:miter;stroke-opacity:1" />
    <path
       d="M 386.68838,257.80882 L 324.34463,260.18382 C 323.87237,260.19951 323.42769,260.42143 323.15713,260.80882 C 322.88658,261.19621 322.82177,261.70378 322.96963,262.15257 L 348.65713,339.27757 C 349.42227,341.57565 351.74927,343.00493 353.90713,342.40257 L 412.84463,325.93382 C 413.3677,325.77475 413.76281,325.34372 413.87588,324.80882 L 418.37588,303.93382 C 418.47287,303.51053 418.38168,303.06599 418.12588,302.71507 C 407.79029,288.38501 398.09447,273.06011 388.00088,258.43382 C 387.70029,258.01326 387.20434,257.7771 386.68838,257.80882 z"
       id="path3433"
       style="opacity:0.5;fill:#000000;fill-opacity:1;fill-rule:evenodd;stroke:none;stroke-width:3;stroke-linecap:butt;stroke-linejoin:round;stroke-miterlimit:4;stroke-dasharray:none;stroke-opacity:1;filter:url(#filter3437)" />
    <path
       d="M 20.374241,26.284326 L 80.71932,23.484812 C 90.789891,38.077733 100.50097,52.670654 110.23451,67.263576 L 105.52926,87.399854 L 46.814095,103.11543 L 20.374241,26.284326 z"
       transform="translate(304.57144,234.07646)"
       id="path3287"
       style="opacity:1;fill:url(#linearGradient3322);fill-opacity:1;fill-rule:evenodd;stroke:none;stroke-width:1px;stroke-linecap:butt;stroke-linejoin:miter;stroke-opacity:1" />
    <path
       d="M 327.22729,260.63786 L 384.72893,258.47291 C 394.1952,272.19017 403.47909,287.15165 412.62855,300.86891 L 408.82776,319.01925 L 353.63587,333.79179 L 327.22729,260.63786 z"
       id="path3312"
       style="opacity:1;fill:url(#linearGradient3336);fill-opacity:1;fill-rule:evenodd;stroke:none;stroke-width:1px;stroke-linecap:butt;stroke-linejoin:miter;stroke-opacity:1" />
    <path
       d="M 329.63921,267.27707 L 388.05668,263.66465 M 332.05114,273.60522 L 391.38442,268.54533 M 334.30753,279.93338 L 394.55663,273.42602 M 336.71946,286.72812 L 397.88438,278.77328 M 341.69884,300.47314 L 404.69539,289.62336 M 344.57736,308.04552 L 408.48973,295.74827 M 349.94432,316.24002 L 406.05872,304.34278 M 353.05735,325.63024 L 410.61413,311.26289 M 339.28691,293.36733 L 401.36765,283.96503"
       id="path3557"
       style="fill:none;fill-opacity:1;fill-rule:evenodd;stroke:#3769e6;stroke-width:0.5;stroke-linecap:butt;stroke-linejoin:miter;stroke-miterlimit:4;stroke-dasharray:none;stroke-opacity:1" />
    <path
       d="M 414.0097,299.61496 L 397.54095,302.83371 C 397.36549,302.86521 397.20941,302.95311 397.1347,303.11496 C 397.06,303.27682 397.07608,303.49225 397.16595,303.64621 L 408.60345,322.80246 L 409.54095,322.27121 L 414.22845,300.70871 L 414.0097,299.61496 z"
       id="path3398"
       style="opacity:0.25;fill:#000000;fill-opacity:1;fill-rule:evenodd;stroke:none;stroke-width:3;stroke-linecap:butt;stroke-linejoin:round;stroke-miterlimit:4;stroke-dasharray:none;stroke-opacity:1;filter:url(#filter3425)" />
    <path
       d="M 30.875,28.125 L 28.84375,28.1875 L 28.78125,28.21875 L 55.71875,96.28125 L 57.625,95.75 L 30.875,28.125 z"
       transform="translate(304.57144,234.07646)"
       id="path3598"
       style="fill:url(#linearGradient3627);fill-opacity:1;fill-rule:evenodd;stroke:none;stroke-width:2;stroke-linecap:butt;stroke-linejoin:miter;stroke-miterlimit:4;stroke-dasharray:none;stroke-opacity:1" />
    <path
       d="M 94.872418,70.143378 L 110.23451,67.263576 L 105.35351,88.116684 L 94.872418,70.143378 z"
       transform="translate(304.57144,234.07646)"
       id="path3293"
       style="opacity:1;fill:url(#linearGradient3344);fill-opacity:1;fill-rule:evenodd;stroke:none;stroke-width:1px;stroke-linecap:butt;stroke-linejoin:miter;stroke-opacity:1" />
    <path
       d="M 81.1875,22 L 18.84375,24.375 C 18.37149,24.39069 17.92681,24.61261 17.65625,25 C 17.3857,25.38739 17.32089,25.89496 17.46875,26.34375 L 43.15625,103.46875 C 43.921391,105.76683 46.24839,107.19611 48.40625,106.59375 L 107.34375,90.125 C 107.86682,89.96593 108.26193,89.5349 108.375,89 L 112.875,68.125 C 112.97199,67.70171 112.8808,67.25717 112.625,66.90625 C 102.28941,52.57619 92.59359,37.25129 82.5,22.625 C 82.19941,22.20444 81.70346,21.96828 81.1875,22 z M 80.71875,23.5 C 90.789319,38.092921 100.51646,52.657078 110.25,67.25 L 105.53125,87.40625 L 105.5,87.40625 L 105.34375,88.125 L 105,87.53125 L 46.8125,103.125 L 20.375,26.28125 L 80.71875,23.5 z"
       transform="translate(304.57144,234.07646)"
       id="path3375"
       style="opacity:1;fill:url(#linearGradient3418);fill-opacity:1;fill-rule:evenodd;stroke:none;stroke-width:3;stroke-linecap:butt;stroke-linejoin:round;stroke-miterlimit:4;stroke-dasharray:none;stroke-opacity:1" />
    <path
       d="M 110.375,66 L 93.90625,69.21875 C 93.730792,69.250252 93.57471,69.33815 93.5,69.5 C 93.425302,69.661861 93.44138,69.87729 93.53125,70.03125 L 104.96875,89.1875 L 105.90625,88.65625 L 94.875,70.125 L 110.59375,67.09375 L 110.375,66 z"
       transform="translate(304.57144,234.07646)"
       id="path3393"
       style="opacity:1;fill:url(#linearGradient3395);fill-opacity:1;fill-rule:evenodd;stroke:none;stroke-width:3;stroke-linecap:butt;stroke-linejoin:round;stroke-miterlimit:4;stroke-dasharray:none;stroke-opacity:1" />
    <path
       d="M 109.95312,68.464844 L 96.90625,70.96875 L 105.87109,85.933594 L 109.95312,68.464844 z"
       transform="translate(304.57144,234.07646)"
       id="path3299"
       style="opacity:1;fill:url(#linearGradient3364);fill-opacity:1;fill-rule:evenodd;stroke:none;stroke-width:1px;stroke-linecap:butt;stroke-linejoin:miter;stroke-opacity:1" />
    <path
       d="M 334.70061,251.03707 C 341.75274,242.62735 352.66576,241.0412 359.80448,245.4902 C 361.36135,246.44879 373.36539,254.10954 369.46862,261.27305 C 367.20251,265.43887 360.58498,266.07436 354.10729,266.88143 C 345.23868,267.98638 343.89803,266.43647 342.35418,265.1776 C 338.96292,262.41234 335.9187,255.70594 334.70061,251.03707 z"
       id="path3279"
       style="opacity:0.5;fill:#000000;fill-opacity:1;fill-rule:evenodd;stroke:none;stroke-width:1px;stroke-linecap:butt;stroke-linejoin:miter;stroke-opacity:1;filter:url(#filter3283)" />
    <path
       d="M 29.507059,16.204844 C 36.559195,7.7951186 47.472209,6.2089718 54.610933,10.657975 C 56.167803,11.616558 68.171838,19.277314 64.275067,26.44082 C 62.008965,30.606637 55.391432,31.242133 48.913741,32.049199 C 40.045126,33.154154 38.704478,31.604236 37.160632,30.345371 C 33.769369,27.580106 30.725148,20.873714 29.507059,16.204844 z"
       transform="translate(304.57144,234.07646)"
       id="path3214"
       style="opacity:1;fill:url(#linearGradient3222);fill-opacity:1;fill-rule:evenodd;stroke:none;stroke-width:1px;stroke-linecap:butt;stroke-linejoin:miter;stroke-opacity:1" />
    <path
       d="M 335.69369,250.02298 C 341.96054,242.54973 352.05863,241.48332 358.40242,245.4369 C 359.78593,246.28874 369.94776,253.47098 366.99041,259.46225 C 364.69418,264.11416 346.83477,266.15456 342.98284,263.23485 C 338.41251,259.77061 336.77614,254.17196 335.69369,250.02298 z"
       id="path3226"
       style="opacity:1;fill:url(#linearGradient3234);fill-opacity:1;fill-rule:evenodd;stroke:none;stroke-width:1px;stroke-linecap:butt;stroke-linejoin:miter;stroke-opacity:1" />
    <path
       d="M 338.10995,248.97066 C 342.58439,244.25926 350.50262,242.04772 358.1165,245.72282 C 359.50001,246.57466 368.51877,253.91043 363.21625,257.97546 C 359.83352,260.56874 348.37996,262.47057 344.85861,260.42372 C 340.66025,257.98335 337.92665,252.76276 338.10995,248.97066 z"
       id="path3236"
       style="opacity:1;fill:url(#linearGradient3244);fill-opacity:1;fill-rule:evenodd;stroke:none;stroke-width:1px;stroke-linecap:butt;stroke-linejoin:miter;stroke-opacity:1" />
    <path
       d="M 34.9375,13.59375 C 34.65267,13.827643 34.358774,14.061602 34.09375,14.3125 C 33.90391,14.543118 33.722167,14.76736 33.53125,14.90625 C 33.496881,15.617269 33.55752,16.373422 33.71875,17.15625 C 33.933621,18.201205 34.32099,19.284636 34.84375,20.34375 C 35.23582,21.138085 35.707078,21.918684 36.25,22.65625 C 37.155066,23.883247 38.246953,24.978239 39.5,25.84375 C 39.506944,25.848571 39.524297,25.838944 39.53125,25.84375 C 39.775082,26.0114 40.026299,26.195555 40.28125,26.34375 C 40.48362,26.461382 40.716692,26.564377 40.96875,26.65625 C 41.104341,26.705997 41.257665,26.738629 41.40625,26.78125 C 41.810719,26.896435 42.231058,26.99758 42.71875,27.0625 C 42.81366,27.075525 42.902346,27.082548 43,27.09375 C 43.25114,27.121971 43.513717,27.139703 43.78125,27.15625 C 44.509464,27.201291 45.277827,27.221725 46.09375,27.1875 C 46.909673,27.153275 47.77072,27.071679 48.625,26.96875 C 46.856515,26.692424 44.915934,26.701333 43.84375,26.3125 C 35.122183,22.256053 35.218902,16.449314 34.9375,13.59375 z"
       transform="translate(304.57144,234.07646)"
       id="path3248"
       style="opacity:1;fill:url(#radialGradient3276);fill-opacity:1;fill-rule:evenodd;stroke:none;stroke-width:1px;stroke-linecap:butt;stroke-linejoin:miter;stroke-opacity:1" />
  </g>
</svg>
