<?xml version="1.0" encoding="UTF-8" standalone="no"?>
<svg
   xmlns:xapMM="http://ns.adobe.com/xap/1.0/mm/"
   xmlns:xap="http://ns.adobe.com/xap/1.0/"
   xmlns:pdf="http://ns.adobe.com/pdf/1.3/"
   xmlns:x="adobe:ns:meta/"
   xmlns:dc="http://purl.org/dc/elements/1.1/"
   xmlns:cc="http://creativecommons.org/ns#"
   xmlns:rdf="http://www.w3.org/1999/02/22-rdf-syntax-ns#"
   xmlns:svg="http://www.w3.org/2000/svg"
   xmlns="http://www.w3.org/2000/svg"
   xmlns:xlink="http://www.w3.org/1999/xlink"
   version="1.1"
   id="svg548"
   style="overflow:visible"
   viewBox="0 0 48 48"
   height="128"
   width="128">
  <defs
     id="defs676">
    <linearGradient
       id="linearGradient9788"
       gradientUnits="userSpaceOnUse"
       x1="41.060501"
       y1="4.3544998"
       x2="41.060501"
       y2="7.6606998"
       gradientTransform="matrix(0.9962,-0.0872,0.0872,0.9962,-24.7865,15.8203)">
      <stop
         offset="0"
         style="stop-color:#FFFFFF"
         id="stop9782" />
      <stop
         offset="1"
         style="stop-color:#000000;stop-opacity:1"
         id="stop9784" />
    </linearGradient>
    <linearGradient
       id="XMLID_13_"
       gradientUnits="userSpaceOnUse"
       x1="23.6758"
       y1="40.5"
       x2="23.6758"
       y2="6.235">
      <stop
         offset="0"
         style="stop-color:#f62e00;stop-opacity:1"
         id="stop554" />
      <stop
         offset="1"
         style="stop-color:#aa0700;stop-opacity:1"
         id="stop555" />
    </linearGradient>
    <radialGradient
       id="XMLID_14_"
       cx="24.7334"
       cy="142.06641"
       r="194.90891"
       fx="24.7334"
       fy="142.06641"
       gradientTransform="matrix(0.1875,0,0,0.1875,19.5,19.5)"
       gradientUnits="userSpaceOnUse">
      <stop
         offset="0"
         style="stop-color:#fffe06;stop-opacity:1"
         id="stop561" />
      <stop
         offset="0.3258"
         style="stop-color:#ffff71;stop-opacity:1"
         id="stop562" />
      <stop
         offset="0.7528"
         style="stop-color:#ffd800;stop-opacity:1"
         id="stop563" />
      <stop
         offset="0.8667"
         style="stop-color:#ffbd49;stop-opacity:1"
         id="stop564" />
      <stop
         offset="0.9564"
         style="stop-color:#ffa414;stop-opacity:1"
         id="stop565" />
      <stop
         offset="1"
         style="stop-color:#ff9e00;stop-opacity:1"
         id="stop566" />
    </radialGradient>
    <radialGradient
       id="XMLID_15_"
       cx="37.7607"
       cy="142.06641"
       r="174.6286"
       fx="37.7607"
       fy="142.06641"
       gradientTransform="matrix(0.1875,0,0,0.1875,19.5,19.5)"
       gradientUnits="userSpaceOnUse">
      <stop
         offset="0"
         style="stop-color:#ffffb2;stop-opacity:1"
         id="stop576" />
      <stop
         offset="1"
         style="stop-color:#ffffff;stop-opacity:1"
         id="stop577" />
    </radialGradient>
    <linearGradient
       id="XMLID_16_"
       gradientUnits="userSpaceOnUse"
       x1="13.0728"
       y1="39.6123"
       x2="13.0728"
       y2="7.2935">
      <stop
         offset="0"
         style="stop-color:#FFFFFF"
         id="stop583" />
      <stop
         offset="1"
         style="stop-color:#ffffb2;stop-opacity:1"
         id="stop584" />
    </linearGradient>
    <linearGradient
       id="XMLID_17_"
       gradientUnits="userSpaceOnUse"
       x1="23.393101"
       y1="8.25"
       x2="23.393101"
       y2="18.75">
      <stop
         offset="0"
         style="stop-color:#FFFFFF"
         id="stop590" />
      <stop
         offset="1"
         style="stop-color:#ffffff;stop-opacity:0.50196081"
         id="stop597" />
    </linearGradient>
    <linearGradient
       gradientTransform="translate(-0.374875,-0.562625)"
       id="XMLID_19_"
       gradientUnits="userSpaceOnUse"
       x1="12.936"
       y1="31.064501"
       x2="34.484901"
       y2="31.064501">
      <stop
         offset="0"
         style="stop-color:#ff9235;stop-opacity:1"
         id="stop613" />
      <stop
         offset="1"
         style="stop-color:#ff5d00;stop-opacity:1"
         id="stop617" />
    </linearGradient>
    <linearGradient
       gradientTransform="translate(-0.374875,-0.562625)"
       id="XMLID_20_"
       gradientUnits="userSpaceOnUse"
       x1="14.7051"
       y1="30.8057"
       x2="32.7099"
       y2="30.8057">
      <stop
         offset="0"
         style="stop-color:#E6E6E6"
         id="stop623" />
      <stop
         offset="0.0178"
         style="stop-color:#E7E7E7"
         id="stop624" />
      <stop
         offset="0.2992"
         style="stop-color:#F9F9F9"
         id="stop625" />
      <stop
         offset="0.5056"
         style="stop-color:#FFFFFF"
         id="stop626" />
      <stop
         offset="0.768"
         style="stop-color:#FAFAFA"
         id="stop627" />
      <stop
         offset="1"
         style="stop-color:#F0F0F0"
         id="stop628" />
    </linearGradient>
    <linearGradient
       id="XMLID_21_"
       gradientUnits="userSpaceOnUse"
       x1="37.125"
       y1="6.0459"
       x2="43.742199"
       y2="6.0459"
       gradientTransform="matrix(0.9962,-0.0872,0.0872,0.9962,-24.7865,15.8203)">
      <stop
         offset="0"
         style="stop-color:#FFFFFF"
         id="stop640" />
      <stop
         offset="1"
         style="stop-color:#CECEDB"
         id="stop641" />
    </linearGradient>
    <linearGradient
       xlink:href="#XMLID_21_"
       id="linearGradient9590"
       gradientUnits="userSpaceOnUse"
       gradientTransform="matrix(0.9998576,0.01740894,-0.01740894,0.9998576,-24.08312,11.939188)"
       x1="37.125"
       y1="6.0459"
       x2="43.742199"
       y2="6.0459" />
    <linearGradient
       xlink:href="#linearGradient9788"
       id="linearGradient9780"
       gradientUnits="userSpaceOnUse"
       gradientTransform="matrix(0.9998576,0.01740894,-0.01740894,0.9998576,-24.08312,11.939188)"
       x1="41.060501"
       y1="4.3544998"
       x2="41.060501"
       y2="7.0160022" />
  </defs>
  <metadata
     id="metadata549">
    <xpacket>begin='﻿' id='W5M0MpCehiHzreSzNTczkc9d'    </xpacket>
    <x:xmpmeta
       x:xmptk="XMP toolkit 3.0-29, framework 1.6">
      <metadata>
        <rdf:RDF>
          <rdf:Description
             rdf:about="uuid:ae06f377-6ffa-4f1c-a8da-eb5efc757f38">
            <pdf:Producer>
Adobe PDF library 5.00</pdf:Producer>
          </rdf:Description>
          <rdf:Description
             rdf:about="uuid:ae06f377-6ffa-4f1c-a8da-eb5efc757f38" />
          <rdf:Description
             rdf:about="uuid:ae06f377-6ffa-4f1c-a8da-eb5efc757f38" />
          <rdf:Description
             rdf:about="uuid:ae06f377-6ffa-4f1c-a8da-eb5efc757f38">
            <xap:CreateDate>
2003-09-15T18:15:58+02:00</xap:CreateDate>
            <xap:ModifyDate>
2004-03-29T09:33:40Z</xap:ModifyDate>
            <xap:CreatorTool>
Adobe Illustrator 10.0</xap:CreatorTool>
            <xap:MetadataDate>
2004-01-29T23:49:39+01:00</xap:MetadataDate>
          </rdf:Description>
          <rdf:Description
             rdf:about="uuid:ae06f377-6ffa-4f1c-a8da-eb5efc757f38">
            <xapMM:DocumentID>
uuid:74fa0bf3-4194-44fa-8dec-8dcfdac4c2a5</xapMM:DocumentID>
          </rdf:Description>
          <rdf:Description
             rdf:about="uuid:ae06f377-6ffa-4f1c-a8da-eb5efc757f38">
            <dc:format>
image/svg+xml</dc:format>
            <dc:title>
              <rdf:Alt>
                <rdf:li
                   xml:lang="x-default">
netscape_doc.ai</rdf:li>
              </rdf:Alt>
            </dc:title>
          </rdf:Description>
          <cc:Work
             rdf:about="">
            <dc:format>image/svg+xml</dc:format>
            <dc:type
               rdf:resource="http://purl.org/dc/dcmitype/StillImage" />
            <dc:title></dc:title>
          </cc:Work>
        </rdf:RDF>
      </metadata>
    </x:xmpmeta>
    <xpacket>end='w'    </xpacket>
  </metadata>
  <path
     style="opacity:0.2"
     d="m 1.45,23.476 c 0,5.007 3.223,9.724 8.687,12.806 -1.254,1.592 -2.463,2.729 -3.313,3.436 l -2.47,2.05 3.205,-0.178 c 4.344,-0.24 7.95,-1.042 10.743,-2.373 C 20.267,39.6 22.29,39.8 24.325,39.8 36.939,39.8 47.2,32.478 47.2,23.477 47.2,14.477 36.938,7.154 24.325,7.154 11.711,7.152 1.45,14.475 1.45,23.476 Z"
     id="path551" />
  <use
     height="100%"
     width="100%"
     transform="translate(-0.183,-0.553)"
     id="use552"
     xlink:href="#path551"
     y="0"
     x="0" />
  <path
     style="fill:url(#XMLID_13_)"
     d="m 0.8,22.557 c 0,5.008 3.223,9.724 8.687,12.807 -1.254,1.591 -2.463,2.729 -3.313,3.435 l -2.47,2.05 3.205,-0.178 c 4.344,-0.24 7.95,-1.042 10.743,-2.373 1.965,0.383 3.988,0.583 6.024,0.583 12.613,0 22.875,-7.322 22.875,-16.323 0,-9 -10.262,-16.323 -22.875,-16.323 C 11.062,6.233 0.8,13.556 0.8,22.557 Z"
     id="path559" />
  <path
     style="fill:url(#XMLID_14_)"
     d="m 23.676,7.293 c -12.03,0 -21.816,6.847 -21.816,15.264 0,5.136 3.647,9.684 9.221,12.451 -1.484,2.086 -3.01,3.592 -4.229,4.604 5.08,-0.281 8.451,-1.304 10.662,-2.416 1.956,0.404 4.023,0.624 6.164,0.624 12.029,0 21.815,-6.848 21.815,-15.264 C 45.491,14.14 35.705,7.293 23.676,7.293 Z"
     id="path574" />
  <path
     style="fill:url(#XMLID_15_)"
     d="m 16.128,37.196 c -1.982,0.997 -4.901,1.921 -9.144,2.304 -0.044,0.037 -0.089,0.076 -0.133,0.112 4.794,-0.266 8.065,-1.191 10.276,-2.229 -0.335,-0.058 -0.669,-0.119 -0.999,-0.187 z M 23.676,7.293 c -0.232,0 -0.462,0.003 -0.692,0.008 11.71,0.257 21.124,7.001 21.124,15.255 0,8.252 -9.408,14.994 -21.114,15.255 0.227,0.005 0.454,0.009 0.682,0.009 12.029,0 21.815,-6.848 21.815,-15.264 0,-8.416 -9.786,-15.263 -21.815,-15.263 z"
     id="path581" />
  <path
     style="fill:url(#XMLID_16_)"
     d="m 18.615,37.196 c -0.101,0.051 -0.207,0.101 -0.313,0.151 1.72,0.307 3.519,0.473 5.374,0.473 0.204,0 0.408,-0.002 0.611,-0.006 -1.966,-0.031 -3.867,-0.245 -5.672,-0.618 z M 6.851,39.612 c 0.414,-0.023 0.812,-0.053 1.204,-0.085 1.203,-1.011 2.685,-2.49 4.128,-4.52 C 6.61,32.239 2.963,27.692 2.963,22.556 2.963,14.268 12.452,7.503 24.228,7.297 24.044,7.294 23.861,7.292 23.677,7.292 c -12.03,0 -21.816,6.847 -21.816,15.264 0,5.136 3.647,9.684 9.221,12.451 C 9.596,37.094 8.07,38.6 6.851,39.612 Z"
     id="path588" />
  <path
     style="fill:url(#XMLID_17_)"
     d="m 7.6,15.174 c 6.446,3.603 13.793,4.488 21.312,2.526 1.552,-0.432 3.128,-0.955 4.651,-1.462 1.836,-0.61 3.725,-1.229 5.623,-1.71 -3.013,-3.884 -8.938,-6.363 -15.542,-6.363 -6.933,0 -13.247,2.791 -16.044,7.009 z"
     id="path601" />
  <path
     style="fill:url(#XMLID_19_)"
     d="m 12.166125,27.019375 c 0,4.478 5.01,8.12 11.168,8.12 6.158,0 11.169,-3.643 11.169,-8.12 v -0.184 c 0,-0.348 -0.161,-0.674 -0.441,-0.894 -0.299,-0.233 -0.697,-0.313 -1.096,-0.227 h -19.263 c -0.4,-0.086 -0.797,-0.007 -1.096,0.227 -0.28,0.22 -0.441,0.546 -0.441,0.894 z"
     id="path611" />
  <path
     style="fill:url(#XMLID_20_)"
     d="m 13.702125,26.380375 c -0.315,0 -0.571,0.203 -0.571,0.454 0,4.009 4.577,7.271 10.204,7.271 5.626,0 10.203,-3.262 10.203,-7.271 0,-0.251 -0.255,-0.454 -0.57,-0.454 z"
     id="path634" />
  <g
     id="g636"
     transform="rotate(-6,12.593197,20.590389)">
    <ellipse
       id="ellipse637"
       ry="5.825"
       rx="3.979"
       cy="18.04"
       cx="15.882" />
    <ellipse
       id="ellipse638"
       ry="5.075"
       rx="3.467"
       cy="18.098"
       cx="15.886"
       style="fill:#b1b1c5" />
    <ellipse
       id="ellipse645"
       ry="4.844"
       rx="3.309"
       cy="18.317"
       cx="16.021"
       style="fill:url(#linearGradient9590)" />
    <path
       id="path646"
       d="m 14.052,18.249 c 0.451,-2.174 1.952,-3.726 3.442,-3.637 -0.506,-0.419 -1.09,-0.64 -1.695,-0.587 -1.609,0.141 -2.746,2.165 -2.54,4.52 0.096,1.094 0.465,2.066 0.993,2.781 -0.34,-0.857 -0.435,-1.947 -0.2,-3.077 z"
       style="opacity:0.5;fill:#ffffff" />
    <path
       d="M 18.4,19.65 A 1.733,2.4375 0 0 1 16.667,22.0875 1.733,2.4375 0 0 1 14.934,19.65 1.733,2.4375 0 0 1 16.667,17.2125 1.733,2.4375 0 0 1 18.4,19.65 Z"
       id="circle647" />
    <path
       style="fill:url(#linearGradient9780)"
       d="m 17.94,19.335 a 1.353,1.903 0 0 1 -1.353,1.903 1.353,1.903 0 0 1 -1.353,-1.903 1.353,1.903 0 0 1 1.353,-1.903 1.353,1.903 0 0 1 1.353,1.903 z"
       id="circle654" />
  </g>
  <use
     height="100%"
     width="100%"
     transform="matrix(-1,0,0,1,46,0)"
     id="use655"
     xlink:href="#g636"
     y="0"
     x="0" />
</svg>
