<?xml version="1.0" encoding="UTF-8" standalone="no"?>
<svg xmlns:rdf="http://www.w3.org/1999/02/22-rdf-syntax-ns#" xmlns="http://www.w3.org/2000/svg" version="1.1" xmlns:x="adobe:ns:meta/" overflow="visible" height="48pt" viewBox="0 0 256 256" width="48pt" enable-background="new 0 0 256 256" xmlns:xap="http://ns.adobe.com/xap/1.0/" xmlns:xlink="http://www.w3.org/1999/xlink" xmlns:cc="http://creativecommons.org/ns#" xmlns:dc="http://purl.org/dc/elements/1.1/">
 <defs>
  <linearGradient id="XMLID_3_" y2="245.0005" gradientUnits="userSpaceOnUse" y1="11" gradientTransform="translate(357)" x2="-228" x1="-228">
   <stop stop-color="#494949" offset="0"/>
   <stop offset="1"/>
  </linearGradient>
  <linearGradient id="XMLID_4_" y2="226.9473" gradientUnits="userSpaceOnUse" y1="29.0527" gradientTransform="translate(357)" x2="-130.0527" x1="-327.9473">
   <stop stop-color="#fff" offset="0"/>
   <stop stop-color="#DADADA" offset="1"/>
  </linearGradient>
 </defs>
 <metadata>
  <x:xmpmeta x:xmptk="XMP toolkit 3.0-29, framework 1.6"/>
  <xpacket>begin=&apos;﻿&apos; id=&apos;W5M0MpCehiHzreSzNTczkc9d&apos;</xpacket>
  <x:xmpmeta x:xmptk="XMP toolkit 3.0-29, framework 1.6">
   <metadata>
    <rdf:RDF>
     <rdf:Description rdf:about="">
      <xap:CreateDate>2004-03-28T20:03:13Z</xap:CreateDate>
      <xap:ModifyDate>2004-03-28T20:07:21Z</xap:ModifyDate>
      <xap:CreatorTool>Illustrator</xap:CreatorTool>
     </rdf:Description>
     <rdf:Description rdf:about="">
      <dc:format>image/svg+xml</dc:format>
     </rdf:Description>
     <cc:Work rdf:about="">
      <dc:format>image/svg+xml</dc:format>
      <dc:type rdf:resource="http://purl.org/dc/dcmitype/StillImage"/>
      <dc:title/>
     </cc:Work>
    </rdf:RDF>
   </metadata>
  </x:xmpmeta>
  <xpacket>end=&apos;w&apos;</xpacket>
 </metadata>
 <path id="y" opacity=".2" enable-background="new    " d="m44 15.5c-9.374 0-17 7.626-17 17v200c0 9.374 7.626 17 17 17h176c9.375 0 17-7.626 17-17v-200c0-9.374-7.625-17-17-17z"/>
 <use xlink:href="#y" transform="translate(-2,-2)"/>
 <use xlink:href="#y" transform="translate(-4,-3)"/>
 <path fill="url(#XMLID_3_)" d="m41 11c-9.374 0-17 7.626-17 17v200c0 9.374 7.626 17 17 17h176c9.375 0 17-7.626 17-17v-200c0-9.374-7.625-17-17-17z"/>
 <path fill="#fff" d="m28 228c0 6.627 5.373 12 12 12h176c6.627 0 12-5.373 12-12v-200c0-6.627-5.373-12-12-12h-176c-6.627 0-12 5.373-12 12z"/>
 <path fill="url(#XMLID_4_)" d="m40 21c-3.86 0-7 3.14-7 7v200c0 3.859 3.14 7 7 7h176c3.859 0 7-3.141 7-7v-200c0-3.86-3.141-7-7-7z"/>
 <g fill="#616161">
  <g id="am">
   <path d="m54.977 102.179.156.034-.563 1.794h-5.125v-.188h.249c.28 0 .48-.09.602-.271.068-.103.103-.341.103-.714v-4.281c0-.41-.046-.668-.137-.771-.127-.142-.316-.213-.567-.213h-.249v-.188h2.984v.188c-.347-.003-.591.029-.729.097-.141.068-.236.153-.287.257-.052.104-.077.35-.077.74v4.164c0 .271.026.457.078.558.039.068.099.119.181.151.081.033.335.049.762.049h.482c.508 0 .863-.037 1.068-.111.205-.075.393-.207.562-.397.168-.19.338-.49.507-.898z"/>
   <path id="k" d="m58.679 103.369c-.458.352-.745.556-.862.61-.175.08-.362.121-.56.121-.309 0-.563-.105-.763-.316s-.3-.488-.3-.832c0-.218.049-.406.146-.564.133-.221.364-.429.693-.623.33-.195.878-.432 1.645-.711v-.176c0-.446-.07-.753-.211-.919s-.346-.249-.613-.249c-.204 0-.366.056-.485.166-.123.11-.185.237-.185.38l.01.283c0 .149-.039.265-.115.346s-.178.122-.301.122c-.121 0-.221-.043-.297-.128-.077-.085-.115-.202-.115-.35 0-.282.143-.541.43-.777.286-.236.688-.354 1.206-.354.397 0 .723.066.977.2.192.101.333.259.425.474.059.141.088.427.088.859v1.52c0 .427.008.688.024.783.017.097.043.161.08.193.038.033.081.049.13.049.052 0 .098-.012.137-.034.068-.042.199-.161.395-.356v.273c-.366.484-.716.727-1.049.727-.16 0-.287-.055-.383-.162-.094-.11-.144-.294-.147-.555zm0-.314v-1.688c-.492.193-.811.33-.953.411-.258.142-.441.29-.553.445-.11.154-.166.324-.166.508 0 .232.07.425.21.578.141.153.302.229.484.229.248 0 .574-.161.978-.483z"/>
   <path d="m65.292 102.37c-.273-.133-.482-.319-.628-.559s-.219-.504-.219-.793c0-.443.167-.824.5-1.143s.76-.479 1.28-.479c.426 0 .795.104 1.107.313h.946c.14 0 .222.004.244.012.022.009.039.022.049.042.02.029.029.081.029.155 0 .084-.009.143-.024.175-.011.017-.027.029-.053.039s-.108.015-.251.015h-.586c.183.235.273.536.273.902 0 .418-.159.776-.477 1.073-.317.298-.744.446-1.278.446-.221 0-.446-.034-.677-.102-.143.121-.239.228-.29.318-.05.092-.075.169-.075.233 0 .054.026.106.081.158.054.052.159.088.316.11.091.014.319.026.686.036.673.018 1.109.042 1.309.073.303.043.546.155.727.338.182.183.272.408.272.676 0 .368-.172.714-.517 1.037-.507.477-1.168.715-1.982.715-.627 0-1.156-.142-1.589-.425-.243-.163-.365-.332-.365-.507 0-.078.018-.156.053-.234.054-.121.165-.289.333-.503.022-.029.185-.205.486-.527-.17-.101-.29-.191-.36-.271s-.105-.171-.105-.272c0-.113.046-.248.14-.401.094-.152.309-.369.645-.65zm-.051 1.637c-.144.165-.252.318-.325.461-.074.143-.11.273-.11.393 0 .156.094.291.282.408.323.2.791.301 1.403.301.583 0 1.013-.104 1.29-.309.276-.206.415-.426.415-.658 0-.169-.083-.289-.25-.359-.17-.072-.507-.114-1.009-.127-.735-.02-1.301-.056-1.696-.11zm.891-4.36c-.238 0-.439.096-.601.286s-.242.483-.242.878c0 .511.11.906.329 1.188.168.214.382.32.641.32.245 0 .447-.092.605-.276s.237-.474.237-.868c0-.514-.111-.916-.335-1.207-.163-.214-.375-.321-.634-.321z"/>
   <path id="p" d="m71.149 97.054v5.938c0 .283.021.471.061.563s.103.162.187.21c.085.048.242.071.472.071v.172h-2.203v-.172c.209 0 .352-.021.428-.064.076-.042.136-.113.18-.212.043-.099.064-.288.064-.567v-4.047c0-.514-.011-.828-.033-.946-.022-.117-.058-.197-.106-.239-.049-.043-.111-.064-.187-.064-.082 0-.187.026-.313.078l-.08-.172 1.314-.547h.216z"/>
   <path id="g" d="m75.073 99.397c.677 0 1.22.258 1.63.773.348.439.521.945.521 1.516 0 .401-.096.808-.288 1.219-.191.41-.456.721-.792.93-.337.208-.712.313-1.125.313-.674 0-1.208-.27-1.605-.807-.334-.453-.502-.963-.502-1.527 0-.41.102-.818.305-1.225s.471-.706.803-.9c.331-.194.682-.292 1.053-.292zm-.152.313c-.173 0-.346.052-.52.154-.175.104-.315.283-.423.542s-.161.59-.161.995c0 .654.129 1.218.389 1.691.258.475.6.711 1.022.711.315 0 .576-.131.781-.393.205-.261.308-.711.308-1.348 0-.798-.171-1.426-.513-1.883-.23-.312-.525-.469-.883-.469z"/>
   <path id="f" d="m79.693 99.397v1.01c.373-.673.756-1.01 1.148-1.01.178 0 .325.055.442.164.116.109.175.236.175.38 0 .128-.042.235-.127.323-.084.089-.184.133-.301.133-.113 0-.24-.057-.382-.172-.141-.114-.245-.172-.313-.172-.059 0-.122.033-.189.099-.146.135-.297.356-.453.665v2.143c0 .248.031.436.095.563.043.089.119.163.229.223.109.061.267.09.473.09v.172h-2.328v-.172c.232 0 .406-.036.52-.109.082-.053.141-.137.174-.253.018-.056.025-.217.025-.481v-1.703c0-.534-.011-.852-.031-.954-.021-.102-.061-.176-.117-.222s-.128-.069-.212-.069c-.101 0-.215.024-.341.073l-.049-.172 1.356-.547h.206z"/>
   <path id="e" d="m83.757 99.397v3.594c0 .283.02.471.061.564.04.094.1.164.179.21s.224.069.433.069v.172h-2.156v-.172c.215 0 .358-.021.432-.064.074-.042.132-.113.176-.212.043-.099.064-.288.064-.567v-1.703c0-.495-.015-.816-.044-.963-.022-.105-.059-.18-.107-.221s-.115-.062-.199-.062c-.091 0-.201.024-.331.073l-.068-.172 1.348-.547h.212zm-.396-2.343c.137 0 .252.048.348.143.095.096.143.211.143.348 0 .135-.048.252-.143.349-.096.097-.211.146-.348.146-.135 0-.252-.049-.349-.146s-.146-.214-.146-.349c0-.137.048-.252.143-.348.096-.095.213-.143.352-.143z"/>
   <use xlink:href="#k" transform="translate(29.325)"/>
   <path id="ak" d="m96.599 103.506c-.219.231-.432.396-.64.494-.209.099-.434.147-.675.147-.488 0-.914-.204-1.279-.613-.365-.408-.547-.934-.547-1.576s.202-1.229.605-1.762c.404-.532.924-.799 1.559-.799.394 0 .719.131.977.394v-.847c0-.514-.013-.828-.037-.946s-.063-.197-.115-.24c-.052-.042-.117-.063-.195-.063-.086 0-.198.026-.339.078l-.063-.172 1.342-.547h.221v5.203c0 .518.012.834.037.947.023.115.063.194.117.24.054.045.117.067.188.067.089 0 .206-.027.354-.083l.054.172-1.336.547h-.227v-.641zm0-.342v-2.289c-.02-.227-.078-.431-.175-.613s-.226-.319-.386-.413c-.161-.092-.317-.139-.469-.139-.285 0-.54.129-.763.386-.295.339-.442.833-.442 1.484 0 .657.143 1.161.428 1.511.285.351.602.525.951.525.296 0 .581-.15.856-.452z"/>
   <use xlink:href="#e" transform="translate(16.717)"/>
   <path id="aj" d="m109.018 102.324c-.121.591-.357 1.042-.71 1.354-.354.313-.743.469-1.171.469-.51 0-.954-.214-1.332-.641-.379-.428-.568-1.005-.568-1.732 0-.704.21-1.276.63-1.717.42-.439.924-.66 1.512-.66.441 0 .804.116 1.088.348s.427.474.427.723c0 .124-.04.224-.12.3s-.191.114-.335.114c-.192 0-.335-.063-.429-.188-.061-.068-.1-.199-.117-.394-.019-.193-.084-.341-.198-.443-.114-.099-.272-.147-.476-.147-.326 0-.589.121-.788.363-.265.32-.396.744-.396 1.271 0 .537.132 1.011.394 1.421.264.411.618.616 1.064.616.32 0 .607-.104.862-.314.179-.147.354-.418.523-.811z"/>
   <use xlink:href="#g" transform="translate(37.263)"/>
   <use xlink:href="#p" transform="translate(46.042)"/>
   <path id="o" d="m122.844 99.522v2.734c0 .516.012.831.036.945.024.115.063.196.117.241.054.046.116.068.188.068.101 0 .215-.027.341-.083l.068.172-1.342.547h-.221v-.942c-.384.415-.676.675-.878.782-.201.106-.414.16-.638.16-.251 0-.468-.073-.651-.22s-.311-.335-.382-.565-.107-.556-.107-.977v-2.02c0-.207-.022-.35-.067-.429-.046-.079-.112-.141-.201-.184s-.249-.063-.481-.06v-.172h1.563v3.01c0 .419.072.694.216.825.145.131.319.196.523.196.14 0 .298-.044.475-.133.177-.088.387-.257.63-.506v-2.549c0-.259-.047-.434-.14-.525s-.286-.14-.579-.146v-.172h1.53z"/>
   <use xlink:href="#e" transform="translate(42.212)"/>
   <use xlink:href="#aj" transform="translate(25.497)"/>
   <path d="m136.951 97.054v3.279c.361-.398.646-.653.857-.767.211-.112.422-.169.635-.169.252 0 .471.07.652.21s.316.36.404.659c.061.209.092.59.092 1.143v1.582c0 .286.023.482.07.587.033.079.088.142.168.188.078.046.223.069.434.069v.172h-2.203v-.172h.104c.207 0 .35-.032.432-.096.08-.064.137-.159.17-.284.01-.053.014-.207.014-.464v-1.58c0-.488-.025-.809-.074-.961-.051-.153-.131-.268-.242-.344-.109-.077-.242-.115-.398-.115-.158 0-.324.043-.496.127-.172.085-.377.256-.617.513v2.36c0 .31.018.502.051.577.035.076.098.14.189.19.094.051.252.076.479.076v.172h-2.203v-.172c.195 0 .35-.031.461-.094.064-.033.115-.096.154-.188.037-.092.057-.279.057-.563v-4.047c0-.514-.012-.828-.035-.946-.025-.118-.063-.197-.113-.24-.051-.042-.117-.063-.201-.063-.068 0-.18.026-.332.078l-.068-.172 1.338-.547h.221z"/>
   <path id="a" d="m141.92 101.21c-.002.663.156 1.183.479 1.56s.699.565 1.135.565c.289 0 .541-.078.756-.236.213-.157.393-.433.537-.826l.156.097c-.068.454-.266.864-.596 1.229-.328.366-.738.549-1.232.549-.537 0-.998-.209-1.379-.628-.383-.419-.574-.981-.574-1.688 0-.766.197-1.362.588-1.791.393-.428.885-.643 1.477-.643.5 0 .912.164 1.234.493s.482.769.482 1.319zm0-.281h2.047c-.016-.285-.049-.486-.102-.604-.08-.182-.199-.324-.359-.428-.158-.104-.326-.156-.5-.156-.266 0-.506.104-.717.314s-.334.501-.369.874z"/>
   <path id="j" d="m150.391 98.038v1.484h1.045v.344h-1.045v2.915c0 .292.041.487.123.589s.188.152.318.152c.105 0 .209-.033.311-.099.1-.066.178-.163.232-.292h.188c-.113.316-.275.554-.482.714-.209.159-.424.239-.645.239-.148 0-.295-.042-.439-.125-.143-.083-.248-.202-.316-.357s-.102-.395-.102-.718v-3.019h-.703v-.162c.178-.072.359-.194.545-.367.188-.172.354-.377.5-.613.076-.125.18-.354.314-.686h.156z"/>
   <use xlink:href="#o" transform="translate(33.433)"/>
   <use xlink:href="#j" transform="translate(8.777)"/>
   <use xlink:href="#j" transform="translate(12.056)"/>
   <use xlink:href="#g" transform="translate(91.531)"/>
   <path id="ai" d="m174.24 100.357c.326-.328.518-.517.576-.566.146-.124.305-.222.473-.29.17-.068.338-.104.504-.104.279 0 .52.082.721.246.203.164.338.402.406.714.336-.394.619-.652.85-.775.232-.123.471-.185.715-.185.238 0 .449.061.633.184.184.121.33.321.438.598.072.189.107.485.107.889v1.924c0 .283.021.477.064.582.031.072.092.135.18.186s.23.076.428.076v.172h-2.203v-.172h.094c.189 0 .34-.038.445-.113.074-.053.129-.137.16-.252.014-.056.02-.215.02-.479v-1.919c0-.363-.043-.62-.131-.77-.127-.208-.332-.312-.611-.312-.174 0-.346.043-.521.129-.174.087-.385.247-.633.48l-.01.055.016.209v2.127c0 .31.018.502.051.577.033.076.098.14.191.19s.252.076.477.076v.172h-2.25v-.172c.244 0 .412-.029.504-.089s.156-.147.191-.267c.016-.056.023-.219.023-.488v-1.918c0-.363-.053-.623-.16-.778-.143-.202-.344-.304-.6-.304-.176 0-.35.046-.521.139-.27.14-.479.297-.625.471v2.391c0 .296.021.488.061.577.041.089.1.155.18.2.078.044.238.066.479.066v.172h-2.203v-.172c.203 0 .346-.022.426-.066.08-.045.143-.115.184-.213.043-.097.063-.285.063-.564v-1.703c0-.496-.014-.815-.043-.96-.023-.108-.059-.183-.107-.224s-.115-.062-.199-.062c-.092 0-.201.024-.326.073l-.074-.172 1.352-.547h.211v.961z"/>
   <use xlink:href="#g" transform="translate(108.311)"/>
   <path d="m186.471 99.522h2.098v.172h-.137c-.127 0-.225.031-.289.093-.066.062-.1.146-.1.249 0 .114.033.249.102.405l1.039 2.471 1.039-2.563c.074-.182.111-.32.111-.415 0-.046-.012-.083-.039-.112-.035-.049-.08-.082-.137-.1-.055-.019-.168-.027-.336-.027v-.172h1.439v.172c-.17.014-.287.049-.352.105-.113.101-.217.268-.307.502l-1.576 3.846h-.184l-1.592-3.784c-.072-.18-.141-.309-.205-.387-.066-.078-.148-.144-.25-.197-.055-.03-.164-.058-.326-.085v-.173z"/>
   <use xlink:href="#a" transform="translate(51.051)"/>
   <path id="n" d="m49.243 111.976 1.391-.547h.188v1.029c.23-.393.461-.667.693-.824.231-.157.476-.236.731-.236.447 0 .82.176 1.119.528.366.431.55.991.55 1.683 0 .773-.221 1.412-.661 1.918-.363.414-.82.621-1.372.621-.24 0-.448-.035-.623-.104-.13-.049-.275-.148-.438-.296v1.368c0 .308.019.504.056.587s.102.149.193.199c.092.049.259.073.501.073v.172h-2.375v-.172h.125c.184.003.341-.031.472-.104.063-.036.112-.094.147-.175.035-.08.053-.284.053-.612v-4.234c0-.283-.013-.464-.039-.541-.026-.076-.067-.134-.124-.172-.057-.039-.134-.059-.231-.059-.078 0-.177.023-.297.068zm1.578.771v1.674c0 .362.015.601.044.715.045.189.155.355.331.5.177.143.398.215.667.215.322 0 .584-.127.784-.382.262-.333.393-.801.393-1.405 0-.686-.148-1.212-.446-1.581-.206-.255-.451-.382-.736-.382-.154 0-.308.039-.46.117-.117.058-.309.235-.577.529z"/>
   <use xlink:href="#a" transform="translate(-86.085,12)"/>
   <use xlink:href="#f" transform="translate(-18.387,12)"/>
   <use xlink:href="#p" transform="translate(-2.778,12)"/>
   <path d="m70.524 112.101-.252-1.449c-.071-.401-.107-.672-.107-.813 0-.209.042-.361.127-.455.085-.096.201-.143.349-.143.146 0 .268.049.364.145s.145.223.145.379c0 .121-.042.418-.127.892l-.264 1.444z"/>
   <path d="m76.326 111.522v2.734c0 .516.012.831.036.945.024.115.063.196.117.241.054.046.116.068.188.068.101 0 .214-.027.341-.083l.068.172-1.342.547h-.221v-.942c-.384.415-.676.675-.877.782-.202.106-.415.16-.639.16-.25 0-.467-.073-.65-.22s-.312-.335-.383-.565c-.072-.23-.107-.556-.107-.977v-2.02c0-.207-.022-.35-.068-.429-.045-.079-.111-.141-.2-.184s-.249-.063-.481-.06v-.172h1.563v3.01c0 .419.072.694.217.825.144.131.318.196.522.196.14 0 .298-.044.475-.133.177-.088.387-.257.63-.506v-2.549c0-.259-.047-.434-.14-.525s-.286-.14-.579-.146v-.172h1.53z"/>
   <path id="i" d="m79.216 112.339c.523-.627 1.023-.941 1.499-.941.244 0 .454.061.63.184.176.121.315.322.42.603.071.195.107.495.107.898v1.909c0 .286.022.48.067.582.035.082.092.146.17.192.079.046.224.069.435.069v.172h-2.203v-.172h.092c.207 0 .353-.032.436-.096.082-.064.14-.159.172-.284.013-.05.02-.204.02-.464v-1.835c0-.408-.053-.704-.158-.889s-.283-.276-.533-.276c-.386 0-.77.213-1.152.637v2.363c0 .307.018.495.055.567.045.096.108.165.189.21.08.044.244.066.49.066v.172h-2.219v-.172h.097c.226 0 .378-.059.457-.175.079-.117.118-.34.118-.669v-1.656c0-.541-.012-.869-.037-.988-.023-.117-.062-.197-.111-.24-.051-.042-.118-.063-.202-.063-.091 0-.2.024-.326.073l-.073-.172 1.352-.547h.211v.942z"/>
   <use xlink:href="#e" transform="translate(1.194,12)"/>
   <path id="ah" d="m86.461 111.522h2.098v.172h-.137c-.127 0-.224.031-.29.093s-.099.146-.099.249c0 .114.034.249.102.405l1.039 2.471 1.039-2.563c.075-.182.112-.32.112-.415 0-.046-.014-.083-.039-.112-.036-.049-.082-.082-.137-.1-.056-.019-.168-.027-.337-.027v-.172h1.44v.172c-.17.014-.287.049-.352.105-.114.101-.217.268-.309.502l-1.575 3.846h-.185l-1.591-3.784c-.072-.18-.141-.309-.205-.387-.065-.078-.148-.144-.249-.197-.056-.03-.165-.058-.327-.085v-.173z"/>
   <use xlink:href="#a" transform="translate(-48.958,12)"/>
   <use xlink:href="#f" transform="translate(18.74,12)"/>
   <path id="ag" d="m103.841 111.397v1.531h-.172c-.122-.484-.279-.813-.471-.988-.191-.174-.435-.262-.73-.262-.225 0-.406.061-.545.182-.138.121-.207.256-.207.402 0 .184.049.341.146.472.095.134.297.276.605.427l.711.349c.66.323.99.749.99 1.277 0 .407-.153.736-.46.986-.306.249-.649.374-1.028.374-.272 0-.583-.047-.934-.141-.107-.031-.194-.047-.263-.047-.074 0-.133.042-.175.125h-.172v-1.594h.172c.091.455.264.798.521 1.029.256.23.543.346.861.346.224 0 .406-.066.547-.199.142-.133.212-.293.212-.479 0-.227-.079-.417-.237-.571-.158-.153-.474-.346-.946-.578-.474-.23-.783-.441-.928-.632-.145-.187-.217-.422-.217-.707 0-.37.126-.68.377-.929.252-.248.577-.373.977-.373.176 0 .389.038.639.113.165.05.275.074.33.074.053 0 .093-.012.122-.034.029-.023.063-.074.103-.153z"/>
   <use xlink:href="#g" transform="translate(32.462,12)"/>
   <use xlink:href="#n" transform="translate(64.287)"/>
   <use xlink:href="#a" transform="translate(-21.797,12)"/>
   <use xlink:href="#i" transform="translate(46.377)"/>
   <use xlink:href="#a" transform="translate(-11.357,12)"/>
   <use xlink:href="#j" transform="translate(-14.359,12)"/>
   <use xlink:href="#f" transform="translate(59.618,12)"/>
   <use xlink:href="#k" transform="translate(85.665,12)"/>
   <path d="m146.984 117.663v-.213c.334-.11.592-.28.773-.512.184-.23.273-.475.273-.733 0-.062-.014-.113-.043-.155-.023-.029-.045-.043-.068-.043-.035 0-.113.032-.232.097-.059.029-.119.044-.184.044-.158 0-.285-.047-.379-.141-.094-.095-.141-.225-.141-.39 0-.159.061-.295.184-.409.121-.113.27-.17.445-.17.215 0 .406.093.574.279.166.186.25.433.25.74 0 .332-.115.643-.348.929s-.6.512-1.104.677z"/>
   <use xlink:href="#a" transform="translate(11.627,12)"/>
   <use xlink:href="#f" transform="translate(82.325,12)"/>
   <use xlink:href="#e" transform="translate(82.325,12)"/>
   <use xlink:href="#ag" transform="translate(66.864)"/>
   <use xlink:href="#n" transform="translate(122.65)"/>
   <use xlink:href="#p" transform="translate(108.103,12)"/>
   <use xlink:href="#a" transform="translate(39.844,12)"/>
   <use xlink:href="#i" transform="translate(108.018)"/>
   <use xlink:href="#ak" transform="translate(97.995,12)"/>
   <use xlink:href="#a" transform="translate(55.783,12)"/>
   <use xlink:href="#e" transform="translate(-32.655,24)"/>
   <use xlink:href="#i" transform="translate(-25.07,12)"/>
   <path d="m65.255 123.522v2.734c0 .516.012.831.036.945.024.115.063.196.117.241.054.046.116.068.188.068.101 0 .214-.027.341-.083l.068.172-1.342.547h-.221v-.942c-.384.415-.676.675-.877.782-.202.106-.415.16-.639.16-.25 0-.467-.073-.65-.22s-.312-.335-.383-.565c-.072-.23-.107-.556-.107-.977v-2.02c0-.207-.022-.35-.068-.429-.045-.079-.111-.141-.2-.184s-.249-.063-.481-.06v-.172h1.563v3.01c0 .419.072.694.217.825.144.131.318.196.522.196.14 0 .298-.044.475-.133.177-.088.387-.257.63-.506v-2.549c0-.259-.047-.434-.14-.525s-.286-.14-.579-.146v-.172h1.53z"/>
   <use xlink:href="#i" transform="translate(-11.07,12)"/>
   <use xlink:href="#k" transform="translate(16.17,24)"/>
   <use xlink:href="#n" transform="translate(30.716,12)"/>
   <use xlink:href="#k" transform="translate(29.609,24)"/>
   <use xlink:href="#f" transform="translate(12.33,24)"/>
   <use xlink:href="#j" transform="translate(-54.538,24)"/>
   <use xlink:href="#a" transform="translate(-43.321,24)"/>
   <use xlink:href="#o" transform="translate(-46.518,12)"/>
   <use xlink:href="#o" transform="translate(-57.589,24)"/>
  </g>
  <path d="m198.494 96.952v3.25c0 .246.012.403.033.471s.066.124.135.168c.068.043.178.064.328.064h.09v.102h-2.094v-.102h.107c.17 0 .291-.02.363-.059.074-.04.123-.094.148-.163.025-.068.037-.229.037-.481v-2.062c0-.187-.008-.303-.025-.35-.018-.046-.051-.086-.098-.117-.049-.033-.104-.049-.166-.049-.098 0-.219.031-.361.094l-.053-.102 1.459-.664z"/>
  <use xlink:href="#n" transform="translate(56.202,12)"/>
  <use xlink:href="#e" transform="translate(29.047,24)"/>
  <use xlink:href="#o" transform="translate(-4.378,24)"/>
  <path d="m115.56 121.21h1.094l.531 1.688h-.173z"/>
  <use xlink:href="#a" transform="translate(-18.095,24)"/>
  <use xlink:href="#ai" transform="translate(-41.929,24)"/>
  <use xlink:href="#a" transform="translate(-1.879,24)"/>
  <use xlink:href="#i" transform="translate(66.296,12)"/>
  <use xlink:href="#g" transform="translate(76.819,24)"/>
  <use xlink:href="#k" transform="translate(102.036,24)"/>
  <use xlink:href="#p" transform="translate(93.537,24)"/>
  <use xlink:href="#j" transform="translate(17.34,24)"/>
  <use xlink:href="#f" transform="translate(91.314,24)"/>
  <use xlink:href="#g" transform="translate(100.645,24)"/>
  <use xlink:href="#ah" transform="translate(92.344,12)"/>
  <use xlink:href="#a" transform="translate(43.387,24)"/>
  <path d="m191.34 125.007h-2.33v-.064c.709-.854 1.141-1.429 1.293-1.724.154-.295.23-.583.23-.864 0-.205-.063-.375-.188-.512-.127-.135-.281-.203-.463-.203-.299 0-.529.15-.693.45l-.109-.038c.105-.375.266-.651.479-.83.215-.18.461-.27.742-.27.199 0 .383.047.549.141.164.094.295.222.389.385.092.162.139.314.139.457 0 .26-.072.522-.215.79-.197.36-.627.863-1.287 1.509h.855c.211 0 .348-.009.41-.026.064-.018.115-.048.156-.09s.096-.131.16-.267h.107z"/>
  <path d="m193.404 127.069c.152 0 .279.053.383.158s.156.232.156.381-.053.276-.158.381-.232.158-.381.158-.277-.053-.381-.158c-.105-.104-.158-.232-.158-.381 0-.152.053-.28.158-.384.104-.103.233-.155.381-.155z"/>
  <path d="m103.334 159.015v-.102c.226-.064.382-.125.469-.181s.162-.141.226-.255c.063-.114.095-.23.095-.348 0-.162-.06-.301-.179-.417s-.268-.175-.445-.175c-.276 0-.511.146-.704.437l-.109-.038c.142-.327.322-.573.543-.737.221-.165.467-.247.737-.247.277 0 .505.084.685.252s.27.364.27.589c0 .146-.042.288-.126.423-.083.137-.215.256-.394.359.229.111.405.249.526.412.12.163.181.367.181.613 0 .415-.15.767-.45 1.057-.301.291-.703.436-1.208.436-.337 0-.583-.056-.737-.168-.111-.078-.167-.179-.167-.303 0-.09.032-.167.097-.23s.139-.096.223-.096c.064 0 .125.014.183.041.031.016.142.102.333.257.19.155.369.233.535.233.145 0 .27-.057.373-.171s.155-.26.155-.436c0-.267-.095-.514-.282-.739-.191-.225-.467-.38-.83-.466z"/>
  <path id="x" d="m106.994 163.069c.152 0 .28.053.384.158s.155.232.155.381-.053.276-.158.381-.232.158-.381.158-.276-.053-.381-.158c-.105-.104-.158-.232-.158-.381 0-.152.053-.28.158-.384.104-.103.232-.155.381-.155z"/>
  <use xlink:href="#x" transform="translate(3)"/>
  <use xlink:href="#x" transform="translate(6)"/>
  <use xlink:href="#am" transform="translate(0,36)"/>
 </g>
 <g fill="#949494">
  <path d="m52.118 177.257h-2.398v-.633h.766v-1.93h-.766v-.594c.112 0 .224-.007.334-.021s.199-.038.266-.07c.078-.039.139-.091.182-.156s.067-.147.074-.244h.793v3.016h.75v.632z"/>
  <path d="m52.282 184.257h-2.672v-.595c.228-.179.433-.348.614-.507s.34-.311.479-.453c.178-.188.308-.352.389-.492.08-.142.12-.287.12-.437 0-.169-.051-.299-.153-.389-.102-.091-.243-.136-.426-.136-.094 0-.182.012-.266.033-.082.023-.166.052-.252.087-.084.037-.155.075-.215.113-.059.039-.104.067-.133.087h-.071v-.796c.103-.049.264-.099.481-.15.219-.052.43-.077.632-.077.433 0 .76.096.982.288s.334.463.334.812c0 .215-.051.426-.151.632-.102.206-.27.428-.504.664-.146.145-.289.274-.428.388s-.238.193-.301.24h1.54v.688z"/>
  <path d="m52.196 197.16c0 .178-.033.341-.099.488s-.163.272-.29.375c-.129.104-.28.183-.454.237s-.385.082-.635.082c-.283 0-.527-.023-.73-.07s-.368-.1-.495-.158v-.787h.088c.134.085.292.158.473.22s.346.093.495.093c.088 0 .184-.008.288-.023.104-.016.19-.051.261-.104.057-.041.101-.092.135-.152.033-.061.05-.146.05-.257 0-.109-.024-.193-.071-.253-.048-.059-.111-.101-.189-.128-.079-.027-.174-.044-.283-.047-.11-.003-.207-.005-.291-.005h-.159v-.633h.145c.111 0 .214-.005.308-.015.093-.01.172-.029.238-.059.064-.031.115-.074.152-.13.037-.055.056-.13.056-.225 0-.073-.017-.133-.052-.18-.034-.046-.076-.082-.127-.108-.06-.029-.129-.049-.207-.059s-.146-.015-.201-.015c-.09 0-.182.011-.275.031-.094.021-.184.048-.272.08-.069.025-.142.06-.216.101-.076.041-.131.071-.168.093h-.075v-.778c.126-.054.296-.105.509-.155.213-.049.431-.074.653-.074.218 0 .405.019.565.057.158.037.295.092.408.163.123.076.217.174.279.292s.093.251.093.399c0 .206-.06.388-.181.543-.119.155-.277.256-.475.302v.033c.087.014.172.035.254.066s.162.082.24.152c.074.063.135.146.183.246.047.103.072.223.072.362z"/>
  <path stroke-width=".25" d="m13.285156 44.140625v.173828h.146485v-.173828h-.146485zm0 1.75v.173828h.146485v-.173828h-.146485zm0 3.5v.173828h.146485v-.173828h-.146485z" transform="scale(4)"/>
  <g id="z">
   <path d="m59.644 178.15c-.088.022-.181.039-.277.051-.098.011-.193.017-.289.017-.271 0-.492-.076-.662-.229-.17-.152-.264-.37-.279-.653h-.063-.053c-.245 0-.467-.042-.664-.126s-.366-.206-.506-.368c-.141-.161-.248-.359-.322-.596s-.111-.504-.111-.803c0-.306.037-.574.113-.807.075-.23.183-.43.322-.596.141-.162.309-.284.506-.368s.418-.126.662-.126c.248 0 .471.043.668.13.199.086.365.208.502.364.139.159.246.357.322.594s.115.506.115.809c0 .472-.092.86-.275 1.167-.184.306-.434.514-.748.623.008.092.023.175.047.249.023.072.055.131.092.174.043.051.096.089.158.112.063.024.148.036.258.036.064 0 .141-.01.229-.03s.15-.039.189-.056h.066zm-.516-2.71c0-.241-.027-.455-.078-.641-.053-.187-.126-.341-.221-.463-.096-.126-.212-.22-.348-.283-.137-.063-.289-.094-.459-.094-.176 0-.328.03-.46.092-.131.062-.247.156-.349.285-.096.124-.17.279-.221.467s-.076.4-.076.637c0 .479.1.845.3 1.099.2.255.47.382.806.382.338 0 .605-.127.806-.382.201-.254.3-.62.3-1.099z"/>
   <path id="w" d="m62.494 177.257h-.461v-.301c-.141.124-.275.219-.402.282-.126.064-.268.097-.423.097-.118 0-.229-.02-.335-.059-.104-.039-.195-.101-.273-.186s-.139-.191-.182-.32-.064-.285-.064-.469v-1.771h.461v1.554c0 .146.006.265.016.36.011.096.035.179.072.25.037.07.088.122.151.154s.155.049.275.049c.112 0 .231-.031.356-.095.127-.063.242-.142.348-.234v-2.038h.461z"/>
   <path id="c" d="m64.587 177.319c-.434 0-.77-.122-1.01-.367-.238-.245-.358-.594-.358-1.045 0-.444.116-.798.349-1.061s.535-.395.911-.395c.169 0 .318.024.448.073.131.049.244.125.342.229s.172.23.224.381.078.334.078.552v.249h-1.891c0 .319.079.563.239.731.158.169.379.253.66.253.102 0 .199-.012.297-.034.096-.022.184-.052.262-.087.083-.038.152-.074.209-.108.058-.035.105-.067.143-.099h.026v.497c-.054.021-.12.048-.2.079-.078.032-.15.057-.213.074-.09.025-.17.044-.242.057s-.164.021-.274.021zm.538-1.734c-.003-.124-.019-.23-.044-.32-.026-.09-.064-.165-.113-.228-.053-.068-.122-.12-.206-.156s-.188-.054-.312-.054-.227.019-.313.055c-.085.037-.163.09-.232.16-.068.072-.121.151-.157.238-.036.088-.059.189-.068.305z"/>
   <path id="m" d="m67.033 177.319c-.184 0-.354-.024-.514-.073-.158-.048-.29-.101-.395-.155v-.514h.024c.038.031.085.065.138.104s.123.077.211.118c.078.036.163.068.256.096.094.028.191.042.291.042.074 0 .151-.009.234-.025.082-.018.145-.039.186-.066.057-.037.098-.077.123-.12.024-.043.037-.107.037-.192 0-.11-.029-.193-.088-.249-.058-.056-.161-.103-.309-.141-.059-.015-.137-.031-.23-.05-.095-.02-.182-.04-.262-.063-.209-.061-.359-.153-.454-.279s-.142-.279-.142-.458c0-.246.093-.446.278-.601s.432-.232.739-.232c.151 0 .303.019.457.057.152.037.281.084.385.141v.49h-.024c-.116-.094-.246-.168-.39-.223-.143-.055-.287-.082-.433-.082-.15 0-.277.032-.381.096s-.155.161-.155.29c0 .115.03.201.091.257.062.057.158.104.292.14.068.018.145.035.229.052.084.018.172.037.266.061.201.051.354.134.455.251s.152.277.152.479c0 .117-.023.229-.07.334-.046.104-.113.194-.203.27-.098.081-.209.144-.332.186s-.277.059-.462.059z"/>
   <path id="h" d="m69.597 177.319c-.25 0-.445-.071-.586-.214-.141-.144-.21-.368-.21-.677v-1.516h-.313v-.383h.313v-.781h.461v.781h.844v.383h-.844v1.304c0 .139.003.246.007.321.006.075.023.146.057.211.027.058.072.101.135.129.061.028.145.043.25.043.075 0 .147-.011.217-.032s.121-.039.152-.054h.026v.407c-.087.024-.174.043-.263.057s-.17.021-.246.021z"/>
   <path id="b" d="m72.216 176.969c-.037.027-.088.066-.15.116s-.123.089-.182.118c-.081.042-.16.075-.234.098-.076.022-.182.034-.318.034-.113 0-.219-.021-.32-.063-.1-.043-.189-.103-.266-.179-.072-.075-.131-.168-.175-.278-.044-.109-.065-.226-.065-.349 0-.189.039-.351.119-.483s.205-.238.377-.317c.153-.069.334-.118.541-.146.209-.026.434-.047.674-.06v-.089c0-.109-.018-.197-.049-.264-.033-.067-.078-.118-.137-.155s-.131-.063-.215-.075c-.086-.013-.172-.019-.262-.019-.105 0-.23.017-.374.05-.144.034-.286.082-.43.146h-.026v-.469c.084-.024.206-.051.364-.081.158-.029.315-.044.47-.044.188 0 .346.015.475.044s.245.082.348.159c.1.075.174.172.223.291s.074.264.074.435v1.868h-.461v-.288zm0-.381v-.753c-.109.01-.246.023-.412.04-.166.018-.301.041-.402.072-.121.037-.223.095-.301.171-.08.077-.119.185-.119.322 0 .156.043.273.131.354.088.079.215.119.384.119.144 0 .274-.031.392-.094.115-.063.225-.14.327-.231z"/>
   <use xlink:href="#c" transform="translate(11.972)"/>
   <path d="m76.73 174.077h-.363l-.668-.914h.594z"/>
   <use xlink:href="#w" transform="translate(19.705)"/>
   <path id="l" d="m85.259 177.257h-.461v-1.554c0-.125-.006-.242-.018-.351s-.035-.195-.069-.26c-.037-.068-.089-.119-.155-.153-.066-.033-.157-.05-.271-.05-.113 0-.23.03-.352.092-.121.061-.238.141-.354.238v2.037h-.461v-2.727h.461v.301c.137-.122.271-.216.404-.281s.273-.098.422-.098c.268 0 .477.088.627.266.151.176.227.433.227.768z"/>
   <use xlink:href="#b" transform="translate(15.457)"/>
   <use xlink:href="#l" transform="translate(7.726)"/>
   <path id="r" d="m96.125 175.895c0 .46-.111.815-.332 1.065-.222.25-.516.375-.885.375-.379 0-.678-.129-.895-.388-.217-.258-.326-.609-.326-1.053 0-.456.111-.811.336-1.063.224-.253.52-.379.885-.379.369 0 .663.126.885.378.22.252.332.607.332 1.065zm-.477 0c0-.353-.064-.615-.192-.786-.128-.172-.311-.258-.548-.258-.238 0-.422.086-.551.258-.129.171-.193.434-.193.786 0 .342.064.601.193.777s.313.265.551.265c.236 0 .418-.087.547-.26s.193-.434.193-.782z"/>
   <use xlink:href="#h" transform="translate(28.069)"/>
   <use xlink:href="#b" transform="translate(28.069)"/>
  </g>
  <g id="ab">
   <use xlink:href="#c" transform="translate(40.042)"/>
   <use xlink:href="#m" transform="translate(40.018)"/>
   <path id="v" d="m111.109 175.824c0 .456-.109.819-.326 1.09s-.492.405-.823.405c-.136 0-.255-.016-.358-.047-.105-.03-.211-.079-.32-.145v1.137h-.461v-3.734h.461v.284c.113-.103.24-.188.379-.258.14-.069.291-.104.455-.104.313 0 .557.124.732.373.173.248.261.581.261.999zm-.477.051c0-.312-.049-.554-.148-.727s-.26-.259-.482-.259c-.13 0-.256.029-.376.087-.121.059-.235.133-.345.225v1.552c.12.06.223.1.309.12.084.021.183.032.293.032.236 0 .422-.088.553-.263s.196-.43.196-.767z"/>
   <path d="m112.302 177.257h-.461v-3.797h.461z"/>
   <path id="d" d="m113.731 174.077h-.523v-.477h.523zm-.031 3.18h-.461v-2.727h.461z"/>
   <path id="q" d="m115.701 177.319c-.188 0-.359-.029-.516-.087s-.291-.146-.402-.263c-.113-.117-.199-.265-.262-.442-.063-.179-.093-.388-.093-.629 0-.239.032-.446.097-.62s.15-.32.258-.439.24-.21.401-.274c.16-.064.333-.097.517-.097.149 0 .294.021.434.063.139.042.264.091.372.146v.517h-.026c-.033-.027-.074-.06-.127-.096-.051-.035-.113-.072-.186-.11-.064-.032-.139-.061-.225-.085-.087-.024-.17-.037-.25-.037-.237 0-.428.09-.572.27s-.216.434-.216.763c0 .322.069.573.208.753.141.18.333.27.58.27.15 0 .293-.03.428-.092.135-.061.254-.14.359-.236h.026v.512c-.046.021-.103.047-.171.077s-.131.052-.186.067c-.078.022-.148.04-.21.052-.061.011-.141.017-.238.017z"/>
   <use xlink:href="#b" transform="translate(46.481)"/>
   <use xlink:href="#h" transform="translate(51.278)"/>
   <use xlink:href="#d" transform="translate(8.747)"/>
   <path d="m125.511 174.53-1.028 2.727h-.413l-1.02-2.727h.492l.75 2.108.742-2.108z"/>
   <use xlink:href="#b" transform="translate(55.315)"/>
   <use xlink:href="#m" transform="translate(64.406)"/>
   <use xlink:href="#w" transform="translate(72.807)"/>
   <path d="m136.691 177.257h-.461v-3.797h.461z"/>
   <use xlink:href="#m" transform="translate(73.13)"/>
   <use xlink:href="#d" transform="translate(28.677)"/>
   <path d="m143.389 177.694c.031.013.076.029.137.051s.129.041.205.061c.084.021.162.037.234.05s.15.019.234.019c.143 0 .264-.019.361-.056.1-.037.176-.088.232-.154.051-.065.088-.142.109-.229s.031-.186.031-.297v-.235c-.123.107-.244.187-.363.237-.119.052-.268.077-.447.077-.311 0-.559-.116-.742-.348-.184-.232-.275-.565-.275-1 0-.227.031-.428.096-.604.063-.176.148-.324.256-.447.104-.117.225-.208.363-.271.141-.063.285-.096.436-.096.141 0 .264.017.367.05.104.034.207.081.311.144l.027-.115h.434v2.416c0 .462-.102.801-.303 1.018-.203.216-.512.324-.928.324-.135 0-.271-.011-.41-.031-.139-.021-.27-.05-.391-.086v-.477h.026zm1.545-1.17v-1.506c-.113-.055-.219-.094-.314-.117-.098-.023-.193-.035-.289-.035-.232 0-.414.086-.549.258-.133.172-.199.418-.199.739 0 .304.051.536.152.694.102.159.266.238.494.238.117 0 .24-.023.365-.071.127-.047.24-.114.34-.2z"/>
   <use xlink:href="#l" transform="translate(63.196)"/>
   <use xlink:href="#d" transform="translate(36.122)"/>
   <path d="m152.193 173.897h-.025c-.041-.015-.1-.028-.176-.042s-.146-.021-.205-.021c-.195 0-.334.044-.416.131s-.123.244-.123.472v.093h.766v.383h-.75v2.344h-.461v-2.344h-.313v-.383h.313v-.09c0-.328.078-.577.236-.748s.385-.256.682-.256c.084 0 .168.005.25.014.08.009.154.019.223.03v.417z"/>
   <use xlink:href="#d" transform="translate(39.366)"/>
   <use xlink:href="#q" transform="translate(39.365)"/>
   <use xlink:href="#b" transform="translate(85.847)"/>
   <use xlink:href="#h" transform="translate(90.644)"/>
   <use xlink:href="#r" transform="translate(67.461)"/>
   <path d="m168.215 177.257h-.461v-.275c-.072.06-.133.109-.186.148s-.113.075-.184.107c-.064.031-.133.055-.203.072-.068.017-.15.025-.242.025-.148 0-.287-.031-.412-.093-.127-.062-.232-.152-.32-.271-.09-.121-.16-.27-.209-.446s-.072-.38-.072-.61c0-.239.031-.446.092-.622.063-.175.148-.328.258-.458.098-.119.219-.213.359-.28s.289-.102.443-.102c.137 0 .256.016.355.045.102.03.207.077.32.141v-1.178h.461v3.797zm-.461-.662v-1.576c-.113-.055-.215-.092-.307-.113-.09-.021-.188-.031-.293-.031-.234 0-.42.088-.553.266-.133.176-.199.432-.199.766 0 .321.051.566.152.736.104.171.268.256.492.256.121 0 .242-.027.363-.082.122-.055.237-.129.345-.222z"/>
   <use xlink:href="#c" transform="translate(105.721)"/>
   <path d="m172.484 177.257h-.461v-3.797h.461z"/>
   <path d="m173.893 177.257h-.461v-3.797h.461z"/>
   <use xlink:href="#b" transform="translate(104.116)"/>
  </g>
  <g id="aa">
   <use xlink:href="#v" transform="translate(70.684)"/>
   <use xlink:href="#r" transform="translate(88.635)"/>
   <use xlink:href="#c" transform="translate(122.068)"/>
   <use xlink:href="#m" transform="translate(122.067)"/>
   <use xlink:href="#d" transform="translate(77.614)"/>
   <use xlink:href="#b" transform="translate(121.538)"/>
   <path d="m195.822 177.257h-.586v-.695h.586z"/>
  </g>
  <path d="m56.23 184.257 1.225-3.633h.596l1.227 3.633h-.512l-.33-1.016h-1.389l-.33 1.016zm2.07-1.43-.561-1.711-.56 1.711z"/>
  <g id="al">
   <use xlink:href="#l" transform="translate(-23.281,7)"/>
   <use xlink:href="#q" transform="translate(-51.749,7)"/>
   <path d="m67.573 184.257h-.461v-1.554c0-.125-.007-.242-.019-.351s-.035-.195-.068-.26c-.037-.068-.09-.119-.156-.153-.066-.033-.156-.05-.271-.05-.113 0-.23.03-.352.092-.12.061-.238.141-.353.238v2.037h-.461v-3.797h.461v1.371c.136-.122.271-.216.403-.281.134-.065.273-.098.422-.098.268 0 .477.088.628.266.151.176.227.433.227.768z"/>
   <use xlink:href="#c" transform="translate(5.056,7)"/>
  </g>
  <use xlink:href="#z" transform="translate(16.575,7)"/>
  <use xlink:href="#ab" transform="translate(16.577,7)"/>
  <use xlink:href="#aa" transform="translate(-129.925,14)"/>
  <path d="m56.621 198.257v-3.633h2.273v.43h-1.789v.992h1.664v.43h-1.664v1.352h1.789v.43h-2.273z"/>
  <use xlink:href="#h" transform="translate(-7.321,21)"/>
  <use xlink:href="#b" transform="translate(-7.322,21)"/>
  <use xlink:href="#l" transform="translate(-16.865,21)"/>
  <use xlink:href="#h" transform="translate(.514 21)"/>
  <use xlink:href="#r" transform="translate(-22.668,21)"/>
  <use xlink:href="#v" transform="translate(-32.828,21)"/>
  <use xlink:href="#c" transform="translate(15.59,21)"/>
  <path id="af" d="m83.332 196.03h-.023c-.035-.011-.07-.017-.109-.02-.037-.003-.084-.004-.137-.004-.124 0-.246.027-.369.08-.121.054-.236.134-.346.239v1.931h-.461v-2.727h.461v.405c.168-.148.313-.253.438-.313.125-.062.245-.092.362-.092.047 0 .083.001.106.004.023.002.049.006.078.011z"/>
  <use xlink:href="#q" transform="translate(-28.873,21)"/>
  <use xlink:href="#b" transform="translate(17.608,21)"/>
  <path d="m94.277 198.257v-1.578c0-.125-.006-.241-.016-.348s-.029-.19-.061-.251c-.032-.065-.078-.113-.139-.144s-.141-.047-.244-.047c-.094 0-.195.029-.303.087s-.219.141-.334.249c.0010.028.004.062.006.1s.004.083.004.136v1.796h-.46v-1.578c0-.125-.006-.241-.016-.348s-.029-.19-.061-.251c-.032-.065-.078-.113-.139-.144s-.141-.047-.244-.047c-.098 0-.202.031-.311.093s-.215.141-.316.236v2.038h-.461v-2.727h.461v.301c.119-.121.238-.214.357-.28.117-.065.247-.099.389-.099.161 0 .304.037.428.109.125.074.22.194.285.361.138-.154.273-.271.404-.352.132-.079.275-.119.43-.119.117 0 .224.019.32.055.096.037.18.096.25.178.074.083.131.187.17.31.04.124.061.28.061.467v1.796h-.46z"/>
  <path d="m97.921 196.849c0 .446-.109.806-.325 1.078s-.487.408-.813.408c-.147 0-.273-.019-.379-.055-.105-.037-.209-.086-.311-.148l-.029.125h-.432v-3.797h.461v1.354c.115-.104.24-.19.375-.259s.289-.103.459-.103c.308 0 .551.123.728.37s.266.589.266 1.027zm-.476.036c0-.326-.051-.573-.148-.742-.1-.169-.259-.253-.479-.253-.125 0-.25.029-.378.088s-.243.133-.347.222v1.567c.115.056.217.096.307.119.089.023.188.035.295.035.232 0 .416-.083.55-.249.133-.167.2-.429.2-.787z"/>
  <use xlink:href="#d" transform="translate(-14.585,21)"/>
  <use xlink:href="#b" transform="translate(29.338,21)"/>
  <use xlink:href="#af" transform="translate(21.026)"/>
  <use xlink:href="#c" transform="translate(41.526,21)"/>
  <path d="m108.705 197.562-.684 1.602h-.355l.43-1.602z"/>
  <use xlink:href="#b" transform="translate(40.698,21)"/>
  <use xlink:href="#al" transform="translate(54.435,14)"/>
  <use xlink:href="#z" transform="translate(71.01,21)"/>
  <use xlink:href="#ab" transform="translate(-53.878,28)"/>
  <use xlink:href="#aa" transform="translate(-53.878,28)"/>
 </g>
 <g enable-background="new    " fill="#616161">
  <path d="m61.768 45.432-.146 2.063h-5.401v-.345c.077-.006.19-.018.337-.034.147-.017.25-.037.309-.063.097-.042.167-.104.211-.186.043-.081.065-.186.065-.313v-4.96c0-.11-.019-.208-.056-.293s-.111-.153-.221-.205c-.074-.039-.179-.077-.313-.114-.134-.038-.245-.06-.332-.066v-.344h2.922v.344c-.091.004-.208.02-.353.049s-.249.055-.313.078c-.11.038-.186.104-.227.199-.04.094-.061.193-.061.301v4.631c0 .215.011.381.031.499.021.118.07.21.147.274.074.059.186.096.332.114s.353.026.617.026c.119 0 .243-.003.373-.01.129-.006.251-.02.367-.038.113-.02.217-.046.313-.08.095-.033.165-.076.211-.127.132-.147.286-.372.462-.672s.298-.543.365-.729h.361z"/>
  <path id="u" d="m66.178 47.401c-.154.056-.29.101-.407.135-.116.034-.248.052-.396.052-.256 0-.461-.06-.613-.178-.153-.119-.251-.293-.293-.521h-.029c-.21.234-.436.417-.676.548-.241.132-.531.197-.87.197-.358 0-.653-.111-.884-.332-.231-.223-.347-.512-.347-.871 0-.186.026-.352.078-.498.052-.147.13-.279.233-.396.081-.098.188-.186.32-.262s.258-.138.375-.184c.146-.055.441-.158.888-.308.446-.15.747-.268.902-.353v-.478c0-.042-.009-.122-.026-.241s-.056-.231-.113-.338c-.064-.118-.156-.223-.273-.311s-.284-.133-.5-.133c-.147 0-.285.025-.412.075-.128.05-.217.102-.269.156 0 .064.016.159.047.285.031.125.047.241.047.347 0 .113-.052.216-.155.31-.104.093-.246.14-.43.14-.164 0-.285-.058-.362-.174-.077-.115-.115-.245-.115-.389 0-.15.053-.293.158-.431.105-.137.243-.259.412-.366.146-.092.323-.169.531-.232s.411-.096.608-.096c.273 0 .512.019.715.056.203.038.387.118.553.241.166.12.291.283.378.488.086.206.129.471.129.795 0 .464-.005.875-.016 1.232-.011.358-.016.75-.016 1.174 0 .127.022.228.066.302.044.075.111.138.203.189.049.029.126.046.232.049s.215.005.326.005v.316zm-1.709-2.563c-.277.082-.521.162-.729.241-.208.078-.402.177-.581.294-.164.112-.292.244-.387.396s-.142.333-.142.543c0 .271.07.472.211.6.142.128.32.191.537.191.229 0 .433-.057.606-.17.176-.112.322-.246.442-.4z"/>
  <path d="m74.817 44.074c0 .589-.11 1.1-.331 1.532s-.509.787-.862 1.063c-.357.276-.759.482-1.204.619-.444.137-.904.205-1.379.205h-2.864v-.343c.095 0 .219-.009.371-.027s.253-.037.302-.061c.099-.042.17-.105.214-.188.044-.084.066-.184.066-.301v-4.999c0-.11-.019-.21-.058-.298-.037-.088-.112-.158-.225-.21-.103-.049-.213-.085-.332-.107s-.222-.037-.308-.044v-.344h3.024c.416 0 .826.064 1.229.192.403.129.755.302 1.055.52.406.29.725.669.955 1.137.232.47.347 1.02.347 1.654zm-1.188-.002c0-.464-.062-.883-.185-1.258-.123-.374-.303-.701-.539-.979-.224-.267-.498-.476-.823-.628s-.688-.229-1.085-.229c-.133 0-.283.002-.45.008-.167.004-.29.009-.371.012v5.307c0 .295.086.5.257.613.172.113.436.17.792.17.411 0 .771-.072 1.078-.219s.558-.349.748-.608c.201-.272.348-.587.439-.946.093-.358.139-.773.139-1.243z"/>
  <path id="t" d="m77.401 47.494h-2.328v-.328c.074-.006.151-.013.23-.02.079-.006.147-.02.206-.039.09-.029.157-.08.201-.152.043-.073.065-.168.065-.285v-2.962c0-.104-.023-.198-.069-.284-.047-.086-.111-.158-.194-.217-.061-.039-.148-.072-.264-.1s-.221-.044-.316-.051v-.328l1.697-.109.068.068v3.922c0 .114.021.209.065.283.043.075.111.131.204.166.071.029.14.053.207.07.067.019.144.031.227.037v.329zm-.609-6.768c0 .185-.062.347-.183.483-.123.139-.273.207-.452.207-.166 0-.31-.065-.433-.197-.121-.131-.183-.281-.183-.449 0-.178.062-.334.183-.467.123-.133.267-.199.433-.199.186 0 .338.063.456.188.119.124.179.269.179.434z"/>
  <path d="m82.252 43c-.146.026-.286.079-.418.158-.132.08-.245.221-.339.422-.193.434-.392.887-.597 1.358s-.419.966-.64 1.484c-.065.149-.135.326-.208.53s-.141.4-.202.588h-.381c-.311-.762-.595-1.456-.855-2.083s-.531-1.269-.811-1.927c-.065-.149-.171-.266-.315-.348-.146-.083-.291-.136-.438-.158v-.328h2.229v.348c-.098.004-.22.023-.366.061s-.22.089-.22.153c0 .01.008.034.024.075.016.04.032.086.049.138.133.328.322.786.566 1.375.244.588.442 1.063.596 1.423.116-.277.264-.621.44-1.032.178-.411.368-.871.573-1.38.032-.086.063-.168.093-.243s.044-.152.044-.229c0-.055-.027-.104-.081-.148s-.118-.082-.192-.114c-.075-.032-.148-.057-.22-.072-.072-.017-.131-.028-.176-.034v-.318h1.843v.301z"/>
  <use xlink:href="#t" transform="translate(6.895)"/>
  <path d="m89.71 47.494h-2.359v-.328c.074-.006.156-.013.246-.02.089-.006.162-.02.221-.039.091-.029.158-.08.202-.153s.065-.168.065-.284v-2.469c0-.341-.08-.604-.24-.789-.159-.185-.354-.277-.583-.277-.171 0-.327.027-.47.08-.142.054-.268.119-.377.197-.107.075-.191.155-.255.241-.063.086-.108.155-.138.207v2.761c0 .11.023.201.07.272s.117.126.212.165c.07.033.146.058.229.073.082.017.166.028.254.034v.328h-2.391v-.328c.074-.006.151-.013.23-.02.079-.006.147-.02.206-.039.091-.029.157-.08.201-.152.044-.073.065-.168.065-.285v-2.962c0-.11-.023-.211-.071-.304-.048-.092-.114-.168-.198-.227-.063-.038-.137-.066-.222-.084-.085-.019-.177-.03-.274-.037v-.328l1.618-.109.069.069v.687h.024c.077-.077.175-.171.291-.279.116-.109.227-.197.33-.266.12-.078.262-.144.427-.195s.352-.078.559-.078c.459 0 .799.144 1.021.431.221.287.332.669.332 1.146v2.497c0 .113.02.205.059.275.039.069.106.123.202.162.078.033.146.056.204.068.057.014.137.023.238.029v.33z"/>
  <use xlink:href="#u" transform="translate(28.175)"/>
  <path d="m99.434 47.666c-.413 0-.809-.082-1.188-.245s-.715-.398-1.007-.705c-.289-.308-.521-.682-.692-1.124-.173-.443-.259-.942-.259-1.497 0-.556.084-1.06.253-1.512s.402-.842.701-1.169c.295-.322.644-.572 1.046-.749s.833-.265 1.29-.265c.341 0 .649.046.925.137.276.092.539.215.789.367l.199-.332h.391l.047 2.469h-.406c-.052-.244-.129-.508-.232-.793s-.224-.527-.362-.725c-.155-.225-.339-.399-.552-.526s-.455-.19-.729-.19c-.313 0-.604.07-.873.211s-.502.35-.698.624c-.188.266-.334.603-.44 1.013-.106.409-.159.865-.159 1.37 0 .445.056.854.168 1.226.111.372.271.698.479.98.207.277.453.496.736.652.283.158.6.236.95.236.262 0 .503-.042.724-.125.221-.084.412-.194.574-.332.161-.144.304-.308.427-.49.123-.184.224-.383.302-.6l.359.176c-.279.688-.65 1.18-1.112 1.476-.464.295-1.013.442-1.651.442z"/>
  <path d="m106.866 45.042c0 .338-.054.669-.161.995s-.261.602-.459.829c-.225.26-.485.452-.781.579-.297.126-.629.189-.996.189-.307 0-.598-.058-.875-.173-.276-.115-.522-.282-.737-.503-.212-.218-.38-.482-.505-.795-.126-.313-.188-.664-.188-1.054 0-.749.219-1.362.657-1.839s1.012-.715 1.721-.715c.674 0 1.23.227 1.668.679.437.454.656 1.056.656 1.808zm-1.016.01c0-.242-.024-.499-.073-.769s-.121-.499-.219-.687c-.104-.2-.24-.361-.409-.483-.169-.121-.374-.182-.618-.182-.25 0-.463.062-.64.185s-.32.291-.431.505c-.104.197-.177.422-.219.674-.043.253-.063.497-.063.732 0 .311.025.598.075.861.051.264.131.499.241.706s.249.37.416.488.374.177.62.177c.406 0 .728-.195.964-.587.238-.391.356-.931.356-1.62z"/>
  <path id="ae" d="m115.272 47.494h-2.328v-.328c.075-.006.151-.013.229-.02.077-.006.146-.02.204-.039.092-.029.16-.08.204-.153s.066-.168.066-.284v-2.479c0-.338-.077-.598-.23-.781-.154-.184-.346-.275-.575-.275-.159 0-.309.024-.447.073-.14.049-.268.116-.384.204-.094.071-.173.148-.235.231-.063.083-.111.151-.144.207v2.771c0 .113.02.207.059.279.04.073.106.129.202.168.075.029.144.052.204.066s.14.025.238.031v.328h-2.297v-.328c.074-.006.146-.013.215-.02.069-.006.133-.02.191-.039.09-.029.157-.08.2-.153s.065-.168.065-.284v-2.479c0-.338-.077-.598-.23-.781s-.345-.275-.573-.275c-.159 0-.308.025-.446.075-.14.051-.267.12-.383.207-.094.071-.173.151-.237.241s-.113.156-.146.202v2.751c0 .11.022.203.066.277s.11.131.2.17c.066.033.134.058.203.073.07.017.148.028.233.034v.328h-2.328v-.328c.074-.006.151-.013.23-.02.079-.006.147-.02.206-.039.09-.029.157-.08.201-.152.043-.073.065-.168.065-.285v-2.98c0-.104-.023-.197-.069-.28-.047-.083-.111-.153-.193-.212-.061-.038-.136-.07-.226-.094-.089-.025-.182-.04-.277-.047v-.328l1.609-.109.068.069v.696h.034c.08-.08.18-.177.296-.287s.225-.199.325-.268c.113-.078.255-.144.425-.195s.354-.078.552-.078c.311 0 .577.084.801.251.223.167.383.37.48.606.117-.113.22-.213.309-.299.09-.086.207-.178.353-.275.123-.085.269-.153.436-.205s.353-.078.557-.078c.405 0 .727.133.963.399.237.266.355.675.355 1.227v2.438c0 .113.019.207.057.279.038.073.103.129.193.168.072.029.144.052.215.066s.15.025.238.031v.331z"/>
  <use xlink:href="#ae" transform="translate(8.309)"/>
  <path d="m127.936 46.376c-.201.384-.471.689-.809.917-.337.228-.726.342-1.163.342-.387 0-.725-.068-1.016-.205s-.53-.322-.719-.557c-.188-.234-.328-.508-.421-.82s-.139-.643-.139-.991c0-.313.05-.619.148-.921.099-.301.243-.571.435-.813.185-.23.414-.418.688-.559.274-.143.581-.213.922-.213.35 0 .648.056.898.166s.452.262.607.453c.149.183.26.397.333.645s.109.516.109.805v.322h-3.172c0 .316.03.604.09.862.06.259.155.485.284.682.127.189.293.339.497.448s.447.164.729.164c.289 0 .537-.068.747-.203.209-.137.411-.381.605-.734zm-1.094-1.835c0-.182-.016-.376-.046-.583-.031-.208-.08-.381-.147-.521-.074-.149-.176-.271-.305-.365s-.294-.141-.497-.141c-.339 0-.619.142-.844.426-.224.283-.345.678-.364 1.184z"/>
  <path d="m133.285 47.4-1.682.109-.074-.067v-.442l-.039-.009c-.17.188-.379.343-.627.463-.25.12-.508.181-.771.181-.273 0-.539-.061-.795-.183s-.477-.294-.666-.515c-.193-.225-.345-.494-.458-.811-.113-.314-.169-.663-.169-1.043 0-.349.061-.679.181-.99.121-.313.287-.586.499-.82.199-.218.443-.392.732-.521.287-.13.582-.195.881-.195.227 0 .447.028.664.086.217.057.402.129.559.217v-1.668c0-.137-.021-.261-.068-.372-.045-.112-.107-.197-.189-.256-.09-.062-.213-.106-.367-.134s-.32-.047-.5-.061v-.328l1.975-.109.072.073v6.482c0 .114.021.21.066.29.043.08.107.147.191.202.061.039.15.063.266.073.117.01.225.017.32.02v.328zm-1.765-.841v-2.805c-.025-.085-.068-.176-.127-.272-.059-.098-.133-.187-.221-.268-.094-.081-.205-.148-.334-.202-.127-.053-.275-.08-.445-.08-.195 0-.377.051-.541.15-.166.102-.313.245-.439.434-.121.182-.217.412-.287.692s-.105.591-.105.931c0 .273.027.52.078.742.053.222.141.429.266.619.113.182.26.328.439.438.178.11.389.165.635.165.26 0 .477-.057.648-.17s.315-.238.433-.374z"/>
  <use xlink:href="#t" transform="translate(58.19)"/>
  <use xlink:href="#u" transform="translate(74.059)"/>
 </g>
 <g enable-background="new    " fill="#616161">
  <path d="m71.081 65.673c0 .959-.188 1.808-.563 2.546s-.896 1.35-1.561 1.833c-.656.483-1.377.838-2.162 1.063s-1.619.337-2.499.337h-2.059v5.6c0 .303.05.57.149.801.101.229.307.405.62.527.156.061.433.117.829.168.395.053.758.083 1.089.092v.906h-7.875v-.906c.205-.018.503-.047.892-.091.389-.043.66-.1.814-.169.257-.112.443-.277.559-.494s.173-.494.173-.832v-13.307c0-.303-.044-.575-.13-.818-.088-.242-.291-.425-.611-.546-.33-.112-.657-.192-.982-.24s-.605-.08-.839-.098v-.906h8.393c1.71 0 3.098.412 4.164 1.237s1.599 1.924 1.599 3.297zm-3.943 3.112c.293-.414.486-.842.581-1.285s.143-.841.143-1.193c0-.49-.059-.99-.175-1.498s-.316-.951-.602-1.33c-.301-.404-.698-.718-1.189-.941s-1.104-.336-1.836-.336h-1.823v8.094h1.319c.93 0 1.688-.145 2.27-.432.582-.29 1.019-.649 1.312-1.079z"/>
  <path id="ad" d="m83.602 79.307c-.408.146-.767.264-1.075.354s-.657.135-1.048.135c-.678 0-1.218-.158-1.622-.473-.404-.316-.662-.776-.775-1.382h-.076c-.559.622-1.156 1.098-1.795 1.425-.639.328-1.409.492-2.31.492-.952 0-1.734-.293-2.348-.879s-.92-1.354-.92-2.302c0-.491.068-.931.206-1.318.137-.388.344-.737.618-1.048.215-.258.498-.488.851-.691.352-.203.682-.364.991-.484.387-.146 1.171-.418 2.351-.814 1.182-.396 1.978-.707 2.39-.932v-1.264c0-.109-.023-.322-.07-.638-.047-.314-.147-.612-.3-.894-.171-.314-.412-.589-.723-.822-.311-.234-.752-.352-1.322-.352-.392 0-.756.066-1.092.197-.337.133-.573.271-.709.415 0 .17.041.421.123.753.082.331.124.637.124.918 0 .297-.137.569-.41.816-.273.246-.653.369-1.14.369-.434 0-.753-.152-.957-.459s-.306-.65-.306-1.031c0-.396.14-.776.419-1.139s.643-.688 1.09-.973c.387-.24.855-.445 1.405-.614s1.087-.253 1.611-.253c.722 0 1.352.05 1.889.148.537.1 1.025.313 1.464.641.438.32.771.754.999 1.301.228.549.342 1.254.342 2.117 0 1.233-.011 2.327-.031 3.28-.021.954-.031 1.995-.031 3.126 0 .336.058.604.175.803.116.197.295.366.537.504.129.078.334.121.615.13.279.009.566.013.86.013zm-4.536-6.825c-.729.216-1.369.428-1.918.635s-1.06.466-1.531.776c-.429.294-.768.642-1.017 1.042-.249.402-.373.879-.373 1.432 0 .717.187 1.242.558 1.579.373.337.846.505 1.42.505.607 0 1.143-.148 1.604-.447.463-.297.852-.648 1.169-1.055z"/>
  <path d="m93.373 68.385c0 .442-.108.835-.324 1.178s-.549.514-.998.514c-.484 0-.854-.129-1.107-.386-.256-.257-.383-.542-.383-.853 0-.195.016-.373.045-.532.031-.159.059-.319.085-.479-.403 0-.874.169-1.413.507s-.997.817-1.373 1.439v7.472c0 .303.058.551.174.741s.299.334.549.43c.215.087.491.151.831.195s.634.073.884.091v.844h-6.75v-.844c.198-.018.402-.034.614-.052.211-.018.394-.052.55-.104.24-.077.42-.213.536-.408s.175-.448.175-.76v-7.905c0-.269-.063-.532-.189-.792-.125-.26-.301-.467-.527-.623-.164-.104-.359-.179-.586-.227-.225-.048-.469-.08-.729-.098v-.844l4.285-.281.184.18v1.777h.064c.533-.702 1.127-1.234 1.779-1.599.654-.364 1.252-.546 1.793-.546.542 0 .982.178 1.322.533s.509.833.509 1.432z"/>
  <use xlink:href="#ad" transform="translate(21.602)"/>
  <path d="m119.193 79.326-4.467.281-.195-.182v-1.191l-.104-.026c-.451.502-1.008.913-1.67 1.232-.663.319-1.346.479-2.047.479-.728 0-1.432-.162-2.111-.486-.681-.324-1.271-.78-1.773-1.368-.512-.597-.917-1.313-1.216-2.153-.299-.838-.448-1.763-.448-2.774 0-.925.16-1.803.48-2.633s.762-1.556 1.326-2.179c.527-.579 1.176-1.041 1.942-1.387s1.549-.52 2.346-.52c.598 0 1.185.076 1.761.227.576.152 1.072.344 1.488.578v-4.454c0-.363-.061-.694-.182-.993s-.291-.525-.507-.682c-.242-.164-.569-.283-.98-.357-.411-.073-.854-.127-1.331-.162v-.813l5.242-.281.195.194v17.249c0 .303.059.561.174.771.117.213.287.393.512.539.164.104.4.168.711.194s.595.043.854.052zm-4.688-2.261v-7.46c-.07-.225-.184-.465-.34-.725-.156-.258-.352-.495-.587-.711-.253-.215-.548-.395-.888-.537s-.735-.213-1.188-.213c-.522 0-1.003.134-1.442.4-.439.268-.829.651-1.168 1.151-.322.483-.577 1.097-.764 1.843s-.28 1.57-.28 2.476c0 .724.069 1.382.209 1.972.139.591.373 1.141.705 1.648.305.482.693.871 1.168 1.164.474.293 1.037.439 1.689.439.696 0 1.272-.15 1.729-.453.459-.299.844-.631 1.157-.994z"/>
  <path d="m125.299 79.545h-6.188v-.844c.198-.018.403-.034.614-.052s.395-.052.549-.104c.242-.077.421-.213.537-.408s.175-.448.175-.76v-7.905c0-.276-.062-.529-.186-.759s-.296-.422-.518-.578c-.162-.104-.396-.192-.703-.266-.308-.074-.589-.119-.844-.137v-.844l4.507-.281.181.182v10.433c0 .304.058.554.173.753s.298.346.547.441c.188.078.372.141.552.188.18.049.381.08.604.098zm-1.625-17.997c0 .493-.162.923-.485 1.29s-.723.551-1.197.551c-.439 0-.821-.175-1.145-.525s-.485-.749-.485-1.199c0-.475.161-.889.485-1.244.323-.354.705-.531 1.145-.531.492 0 .896.166 1.211.499.314.332.471.718.471 1.159z"/>
  <path d="m133.99 73.313c.355.312.629.671.818 1.078.191.406.285.904.285 1.492 0 1.186-.445 2.154-1.334 2.908-.891.752-2.045 1.129-3.459 1.129-.748 0-1.436-.142-2.067-.425-.629-.283-1.078-.537-1.348-.763l-.261.844h-.969l-.125-4.438h.906c.069.34.216.737.44 1.191.225.453.498.863.818 1.229.337.385.741.707 1.213.969.471.262 1 .393 1.59.393.83 0 1.469-.188 1.92-.564.449-.376.674-.914.674-1.615 0-.363-.07-.678-.213-.941s-.354-.496-.631-.695c-.285-.198-.637-.378-1.051-.538-.416-.16-.879-.317-1.389-.474-.408-.121-.859-.288-1.358-.5-.498-.212-.924-.461-1.279-.746-.381-.303-.692-.676-.935-1.117s-.363-.96-.363-1.557c0-1.047.391-1.935 1.173-2.662.781-.727 1.827-1.09 3.139-1.09.504 0 1.018.064 1.543.194s.953.285 1.283.467l.299-.692h.938l.188 4.125h-.906c-.182-.914-.572-1.658-1.174-2.232s-1.334-.861-2.199-.861c-.709 0-1.268.178-1.673.532-.406.354-.609.782-.609 1.284 0 .391.067.715.201.975s.335.48.605.662c.258.172.586.335.979.486.395.151.881.322 1.461.513.572.182 1.109.394 1.617.636.507.24.925.509 1.253.803z"/>
  <path d="m148.178 73.027c0 .896-.143 1.779-.428 2.645-.287.867-.693 1.602-1.221 2.205-.598.689-1.289 1.203-2.076 1.539-.789.336-1.672.504-2.648.504-.814 0-1.588-.153-2.324-.459-.734-.306-1.389-.752-1.959-1.338-.563-.578-1.012-1.283-1.344-2.115-.334-.832-.5-1.765-.5-2.799 0-1.992.582-3.621 1.746-4.889 1.164-1.267 2.689-1.9 4.576-1.9 1.791 0 3.268.602 4.432 1.805 1.164 1.202 1.746 2.802 1.746 4.802zm-2.688.027c0-.645-.064-1.325-.195-2.043-.129-.718-.324-1.325-.584-1.825-.275-.532-.639-.96-1.09-1.282-.449-.322-1-.483-1.648-.483-.666 0-1.234.164-1.707.49-.471.326-.854.773-1.146 1.34-.277.525-.473 1.123-.586 1.793-.111.67-.168 1.319-.168 1.946 0 .825.066 1.589.201 2.288.135.701.348 1.326.643 1.877.295.55.664.982 1.109 1.295.445.314.998.471 1.654.471 1.082 0 1.938-.52 2.57-1.561.631-1.04.947-2.475.947-4.306z"/>
 </g>
 <g enable-background="new    " fill="#828282">
  <path d="m163.424 34.754c0 .472-.088.881-.266 1.228s-.408.631-.691.853c-.287.221-.609.387-.965.496-.357.109-.727.164-1.107.164h-2.299v-.281c.076 0 .176-.007.299-.021.121-.014.203-.03.242-.049.08-.033.137-.084.172-.15s.053-.146.053-.24v-3.996c0-.089-.014-.168-.045-.238-.029-.07-.09-.127-.18-.168-.082-.039-.17-.067-.264-.086-.096-.018-.178-.029-.246-.035v-.281h2.424c.334 0 .662.052.986.154.322.104.604.242.844.416.326.232.58.536.766.911.185.374.277.815.277 1.323zm-.953-.002c0-.371-.049-.707-.148-1.007s-.244-.562-.434-.784c-.18-.213-.4-.381-.664-.502-.262-.123-.553-.184-.873-.184-.107 0-.229.002-.361.006-.135.004-.234.008-.301.01v4.248c0 .236.07.4.207.49.139.092.352.137.639.137.33 0 .621-.059.869-.175.246-.117.447-.279.602-.487.162-.218.279-.471.354-.757.073-.287.11-.618.11-.995z"/>
  <path d="m167.252 37.421c-.123.045-.23.081-.324.109-.092.028-.197.042-.314.042-.205 0-.367-.048-.488-.143s-.199-.233-.232-.416h-.023c-.17.188-.35.33-.543.428s-.426.146-.697.146c-.287 0-.523-.088-.709-.265-.186-.176-.277-.407-.277-.692 0-.147.02-.279.061-.396.043-.116.104-.221.188-.314.064-.078.15-.146.256-.208.107-.062.207-.109.299-.146.117-.045.354-.126.709-.245.357-.119.598-.213.723-.28v-.383c0-.033-.008-.098-.021-.193-.016-.096-.045-.186-.092-.271-.051-.095-.125-.178-.219-.249s-.229-.106-.4-.106c-.119 0-.229.02-.33.06-.104.04-.174.082-.215.125 0 .052.012.127.037.228.023.1.037.192.037.277 0 .09-.041.172-.123.246s-.197.111-.342.111c-.131 0-.227-.046-.287-.139-.063-.092-.092-.195-.092-.31 0-.119.041-.233.125-.343.084-.108.195-.206.33-.292.115-.072.258-.134.424-.185s.328-.076.486-.076c.217 0 .406.015.568.045.162.029.311.094.441.192.133.096.234.227.303.391.068.165.104.377.104.636 0 .371-.004.7-.008.986-.006.287-.008.6-.008.939 0 .102.016.182.051.241s.09.11.162.151c.039.023.1.037.184.039.084.003.17.004.26.004v.256zm-1.367-2.052c-.221.064-.414.129-.58.191s-.32.14-.463.233c-.129.089-.23.193-.307.313-.074.121-.111.265-.111.432 0 .215.055.374.168.475.113.102.256.152.43.152.184 0 .346-.045.486-.135.139-.09.256-.195.354-.317z"/>
  <path d="m171.508 37.494h-1.906v-.266c.061-.005.129-.01.203-.016.074-.005.135-.016.184-.031.076-.023.131-.063.168-.122.035-.059.055-.134.055-.228v-1.971c0-.272-.064-.482-.195-.63-.129-.147-.287-.222-.473-.222-.139 0-.266.021-.381.064s-.217.095-.305.157c-.088.06-.156.124-.207.192s-.088.124-.111.165v2.204c0 .088.018.161.057.218.037.058.092.102.168.132.055.026.117.046.182.059.066.014.133.022.203.027v.266h-1.906v-.266c.059-.005.121-.01.184-.016.064-.005.119-.016.166-.031.072-.023.125-.063.16-.122.035-.058.053-.134.053-.228v-2.364c0-.088-.02-.169-.057-.243-.039-.073-.092-.134-.158-.18-.051-.031-.109-.055-.176-.068-.068-.014-.141-.023-.219-.029v-.266l1.289-.094.055.056v.553h.02c.063-.063.141-.137.234-.224.094-.088.182-.158.266-.213.098-.063.211-.115.344-.156.135-.041.283-.063.451-.063.369 0 .645.115.824.345.178.229.268.535.268.917v1.998c0 .09.016.164.047.22s.086.099.162.13c.063.026.117.045.162.055.047.011.109.019.191.023v.268z"/>
  <path d="m173.959 37.324c-.17.069-.332.129-.482.176-.152.049-.338.072-.557.072-.324 0-.553-.081-.686-.244-.131-.163-.197-.393-.197-.69v-2.612h-.688v-.376h.703v-1.203h.711v1.203h1.117v.375h-1.109v2.158c0 .162.006.297.018.405s.039.202.084.284c.043.075.105.133.189.172s.195.059.338.059c.064 0 .162-.006.289-.018s.217-.026.27-.045z"/>
  <path d="m177.336 36.6c-.16.306-.375.55-.645.731s-.58.272-.93.272c-.309 0-.58-.055-.811-.164-.232-.109-.424-.258-.574-.445s-.262-.406-.336-.656-.111-.514-.111-.793c0-.25.039-.495.119-.736.078-.24.195-.457.348-.65.148-.185.33-.334.551-.447.219-.113.463-.17.736-.17.279 0 .52.044.719.133.199.088.361.209.486.361.119.146.207.316.266.514s.088.411.088.642v.257h-2.531c0 .255.023.486.072.693.049.208.125.391.229.549.102.152.234.272.4.36.164.088.359.132.586.132.232 0 .432-.055.602-.163.168-.108.33-.304.486-.587zm-.875-1.481c0-.145-.012-.299-.037-.465-.023-.164-.063-.303-.117-.414-.059-.118-.139-.215-.24-.29-.104-.075-.234-.112-.396-.112-.268 0-.492.113-.67.339s-.273.54-.289.942z"/>
  <path d="m184.209 37.494h-2.303v-.281c.203-.013.373-.039.506-.078.135-.039.201-.087.201-.145 0-.023-.002-.052-.008-.086-.004-.033-.012-.063-.023-.09l-.459-1.242h-1.953c-.074.183-.133.342-.18.477-.045.136-.086.261-.123.375-.033.112-.057.203-.07.273s-.02.128-.02.172c0 .104.082.186.246.242.164.058.35.092.555.102v.281h-2.088v-.281c.066-.005.152-.02.254-.045.102-.024.184-.058.25-.1.104-.07.186-.144.242-.221.057-.076.113-.183.168-.318.279-.695.588-1.477.924-2.344s.637-1.639.898-2.316h.314l1.85 4.781c.039.102.084.184.133.246s.119.124.207.184c.061.037.139.067.234.092.098.025.178.039.244.041v.281zm-2.227-2.265-.846-2.162-.832 2.162z"/>
  <path d="m185.691 37.494h-1.859v-.266c.059-.005.119-.011.186-.018.066-.006.121-.016.164-.029.07-.023.123-.063.16-.122.035-.059.053-.134.053-.228v-4.438c0-.093-.02-.181-.061-.263-.039-.081-.092-.146-.154-.192-.047-.03-.133-.06-.256-.085-.123-.026-.221-.041-.295-.047v-.266l1.445-.094.055.059v5.277c0 .092.016.166.049.225s.088.104.162.135c.055.026.111.046.166.059.055.014.117.022.186.027v.266z"/>
  <path id="s" d="m187.643 37.494h-1.859v-.266c.059-.005.121-.01.184-.016.064-.005.119-.016.166-.031.072-.023.125-.063.16-.122.035-.058.053-.134.053-.228v-2.364c0-.083-.02-.159-.057-.228-.039-.068-.092-.126-.158-.173-.051-.03-.121-.058-.215-.079-.094-.022-.18-.035-.258-.041v-.266l1.367-.094.055.055v3.141c0 .092.018.167.051.227.035.061.09.104.164.133.057.023.111.043.166.057.055.015.115.024.182.029v.266zm-.485-5.433c0 .149-.049.28-.146.392s-.219.167-.361.167c-.133 0-.248-.053-.346-.159s-.146-.228-.146-.364c0-.145.049-.27.146-.378.098-.107.213-.161.346-.161.148 0 .27.051.365.151.093.101.142.218.142.352z"/>
  <path d="m191.045 37.092c.105.1.188.212.248.337s.09.28.09.466c0 .185-.041.359-.121.522-.082.163-.203.304-.369.425-.174.122-.383.217-.627.285-.242.067-.543.102-.9.102-.586 0-1.023-.086-1.313-.256-.291-.172-.436-.422-.436-.75 0-.267.104-.477.313-.631.209-.153.475-.236.797-.25v-.055c-.078-.023-.16-.052-.244-.087s-.156-.076-.215-.122c-.068-.055-.123-.119-.166-.192-.041-.074-.063-.165-.063-.274 0-.137.049-.264.146-.379s.244-.214.443-.297v-.059c-.252-.117-.447-.267-.586-.45s-.207-.396-.207-.638c0-.364.137-.663.41-.896.273-.234.623-.352 1.049-.352.117 0 .234.012.352.035.115.023.234.054.355.09h1.35v.375h-.912v.023c.098.111.17.235.217.37.047.136.07.268.07.397 0 .338-.139.624-.414.858-.275.233-.596.351-.963.351h-.475c-.061.021-.123.059-.189.112s-.1.127-.1.22c0 .096.027.168.082.219.057.05.123.084.201.102.076.021.164.034.266.039.102.006.205.01.313.012.115.003.273.011.475.023.201.014.342.021.426.023.121.006.242.034.365.086.121.054.232.125.332.216zm-.303.947c0-.146-.033-.267-.102-.36-.068-.095-.172-.158-.311-.192-.074-.01-.225-.021-.451-.035-.229-.013-.494-.02-.795-.02-.281.055-.482.146-.602.276-.119.129-.178.296-.178.499 0 .092.02.179.059.263.039.083.107.16.205.231.092.067.215.123.369.166s.342.064.564.064c.385 0 .688-.074.908-.221.223-.147.334-.371.334-.671zm-.75-3.211c0-.302-.063-.542-.188-.722-.125-.179-.299-.269-.525-.269-.123 0-.229.025-.316.075-.088.051-.16.122-.215.215-.053.085-.09.188-.113.308-.021.12-.033.243-.033.369 0 .286.064.52.191.7s.291.271.494.271c.227 0 .4-.09.521-.269.124-.179.184-.404.184-.678z"/>
  <path d="m195.588 37.494h-1.906v-.266c.063-.005.131-.01.205-.016.074-.005.137-.016.184-.031.076-.023.131-.063.168-.122.035-.059.053-.134.053-.228v-1.971c0-.272-.064-.482-.191-.63-.129-.147-.285-.222-.469-.222-.135 0-.26.021-.375.064s-.219.095-.309.157c-.09.065-.156.13-.203.194s-.082.119-.109.163v2.204c0 .088.018.161.055.218.035.058.092.102.166.132.059.026.119.046.184.059.063.014.131.022.205.027v.266h-1.906v-.266c.061-.005.121-.011.186-.018.064-.006.117-.016.162-.029.072-.023.125-.063.162-.122.035-.059.053-.134.053-.228v-4.459c0-.088-.02-.176-.061-.265-.039-.088-.092-.153-.156-.197-.047-.034-.129-.059-.246-.072-.119-.014-.215-.023-.287-.029v-.266l1.43-.094.055.059v2.69h.016c.086-.085.164-.161.234-.228s.162-.137.275-.209c.1-.063.215-.115.35-.156.133-.041.283-.063.449-.063.342 0 .605.108.791.325.184.217.275.529.275.937v1.998c0 .09.018.164.049.22.033.056.088.099.162.13.061.023.115.041.162.053.049.012.111.021.189.025v.266z"/>
  <use xlink:href="#s" transform="translate(9.875)"/>
  <path d="m201.008 36.6c-.16.306-.377.55-.646.731s-.578.272-.928.272c-.309 0-.58-.055-.813-.164-.23-.109-.422-.258-.572-.445s-.264-.406-.336-.656c-.074-.25-.111-.514-.111-.793 0-.25.039-.495.117-.736.08-.24.195-.457.35-.65.146-.185.33-.334.549-.447s.465-.17.738-.17c.279 0 .52.044.719.133.199.088.361.209.486.361.119.146.207.316.266.514s.088.411.088.642v.257h-2.531c0 .255.023.486.072.693.049.208.125.391.229.549.102.152.234.272.398.36s.361.132.588.132c.232 0 .432-.055.6-.163s.332-.304.488-.587zm-.875-1.481c0-.145-.012-.299-.037-.465-.023-.164-.063-.303-.117-.414-.059-.118-.139-.215-.242-.29-.102-.075-.232-.112-.395-.112-.27 0-.492.113-.67.339s-.273.54-.289.942z"/>
  <path d="m204.021 34.129c0 .132-.033.25-.098.352-.064.104-.164.154-.299.154-.146 0-.256-.038-.332-.115-.078-.076-.115-.162-.115-.254 0-.059.004-.111.014-.16.008-.047.018-.095.025-.143-.123 0-.268.051-.432.153-.166.102-.305.247-.42.435v2.24c0 .092.018.166.053.223.035.058.09.101.164.129.064.026.148.046.25.059.104.014.191.022.268.027v.266h-2.031v-.266c.059-.005.121-.01.184-.016.064-.005.119-.016.166-.031.072-.023.125-.063.16-.122.035-.058.053-.134.053-.228v-2.364c0-.08-.02-.159-.057-.237-.039-.077-.092-.14-.158-.186-.051-.031-.109-.055-.176-.068-.068-.014-.141-.023-.219-.029v-.266l1.289-.094.055.055v.544h.02c.16-.211.34-.371.539-.481.197-.109.379-.164.543-.164s.297.053.4.16c.102.105.154.247.154.427z"/>
  <use xlink:href="#s" transform="translate(18.162)"/>
 </g>
 <g enable-background="new    " fill="#828282">
  <path d="m153.457 218.998c0 .688-.23 1.277-.689 1.77s-1.041.738-1.744.738c-.313 0-.566-.032-.762-.096-.197-.063-.357-.141-.484-.232h-.039v1.367c0 .113.025.213.074.297.051.084.121.146.213.186.088.035.213.067.373.097s.295.047.402.054v.375h-3.531v-.375c.082-.007.184-.019.309-.036.125-.019.219-.037.281-.057.104-.035.176-.097.213-.183s.057-.184.057-.294v-4.978c-.01-.106-.035-.2-.076-.281s-.105-.152-.193-.215c-.064-.041-.15-.076-.258-.104-.107-.028-.213-.047-.316-.057v-.374l2.379-.125.074.063v.539l.039.01c.215-.219.453-.388.715-.509.264-.12.523-.181.779-.181.676 0 1.207.238 1.6.717.389.476.584 1.105.584 1.884zm-1.75.023c0-.244-.018-.477-.055-.7-.035-.224-.1-.423-.191-.599-.088-.176-.205-.315-.35-.42-.145-.104-.322-.156-.531-.156-.213 0-.383.037-.51.109-.127.074-.238.169-.332.286v2.77c.02.065.057.149.111.251.057.104.111.186.168.247.08.088.174.153.279.195.104.042.219.063.342.063.324 0 .582-.174.777-.52.194-.346.292-.854.292-1.526z"/>
  <path id="ac" d="m161.643 221.286c-.141.063-.309.12-.504.173-.193.052-.398.078-.613.078-.398 0-.689-.06-.877-.178-.188-.119-.314-.289-.383-.511h-.029c-.109.11-.217.205-.318.283-.104.078-.213.146-.33.2-.152.071-.299.123-.441.156-.141.032-.338.049-.592.049-.377 0-.699-.111-.965-.335-.268-.223-.4-.519-.4-.887 0-.212.029-.392.088-.54s.143-.279.25-.394c.096-.104.209-.19.338-.259s.27-.132.422-.191c.293-.107.643-.219 1.053-.334s.709-.219.896-.311v-.474c0-.083-.006-.191-.02-.326-.012-.135-.039-.248-.082-.341-.045-.105-.115-.193-.211-.267-.096-.072-.223-.108-.381-.108-.141 0-.26.021-.354.063-.096.041-.172.083-.23.126.01.065.039.167.084.302.047.135.068.266.068.391 0 .057-.014.127-.043.211s-.072.15-.129.2c-.074.066-.158.117-.252.153-.094.037-.236.055-.43.055-.273 0-.482-.066-.623-.198s-.211-.304-.211-.517c0-.183.072-.347.217-.492s.32-.265.527-.359c.205-.098.439-.174.707-.228.266-.054.512-.081.738-.081.314 0 .604.019.865.057.264.037.5.114.711.231.201.114.361.28.479.497.119.217.178.499.178.848 0 .368-.008.805-.023 1.31s-.023.838-.023.997c0 .146.021.263.066.348.043.084.109.148.199.19.055.026.141.042.258.046.117.006.225.008.32.008zm-2.407-2.53c-.182.062-.361.131-.539.21s-.322.162-.436.249c-.121.091-.215.206-.283.346-.066.141-.102.306-.102.496 0 .251.059.433.174.546.113.112.256.169.424.169.178 0 .324-.036.439-.108.115-.073.217-.162.303-.269z"/>
  <path d="m169.506 217.084h-1.068c.127.143.223.294.287.453.063.158.094.324.094.496 0 .225-.061.436-.18.633-.121.197-.279.357-.475.481-.199.127-.432.226-.699.298-.266.072-.557.107-.869.107h-.795c-.039.029-.082.076-.129.141-.049.063-.072.125-.072.185 0 .145.057.244.172.3.113.057.32.088.621.094.297.007.596.019.898.037.305.018.521.028.65.031.189.01.377.048.563.115.186.066.348.153.484.261.15.114.273.26.371.437.098.178.146.382.146.613 0 .247-.059.48-.178.698s-.301.407-.545.566c-.258.166-.566.294-.926.386-.359.091-.805.137-1.336.137-.857 0-1.508-.104-1.955-.313-.445-.209-.67-.521-.67-.939 0-.258.121-.469.361-.635.24-.167.615-.258 1.121-.274v-.059c-.299-.101-.531-.235-.699-.403s-.252-.363-.252-.584c0-.138.033-.253.1-.348.068-.095.152-.178.258-.25.09-.062.201-.114.33-.158.131-.044.24-.079.328-.105v-.054c-.441-.163-.764-.361-.971-.596s-.311-.521-.311-.86c0-.479.221-.861.662-1.148.441-.286 1.002-.43 1.68-.43.221 0 .436.019.643.057.205.037.363.07.471.1h1.889v.53zm-1.469 5.034c0-.11-.031-.22-.092-.329-.063-.109-.201-.197-.416-.266-.117-.02-.311-.033-.578-.039-.27-.007-.639-.01-1.107-.01-.113.098-.209.213-.285.346-.076.134-.115.295-.115.482 0 .082.023.171.068.269.047.098.117.188.215.272.115.095.242.168.381.223.141.053.352.08.637.08.42 0 .74-.081.961-.244.222-.162.331-.423.331-.784zm-.828-4.114c0-.38-.061-.681-.18-.901-.121-.221-.305-.331-.555-.331-.127 0-.238.03-.332.09-.094.061-.17.147-.229.261-.057.11-.094.239-.113.388-.02.147-.029.299-.029.455 0 .354.063.645.186.872s.299.341.527.341c.232 0 .412-.103.537-.307.125-.206.188-.495.188-.868z"/>
  <path d="m174.898 221.381h-3.078v-.375c.084-.006.166-.015.246-.024s.15-.025.207-.048c.104-.039.176-.095.219-.168.041-.072.063-.168.063-.288v-2.819c0-.113-.027-.213-.08-.299-.053-.085-.117-.154-.197-.205-.059-.039-.148-.076-.27-.111-.121-.036-.23-.059-.328-.068v-.376l2.41-.125.074.073v3.864c0 .113.023.21.072.289.049.08.117.139.207.178.064.029.137.056.213.078.078.023.158.039.242.049zm-.703-6.662c0 .248-.096.46-.285.635s-.414.262-.674.262c-.262 0-.488-.087-.678-.262-.191-.175-.285-.387-.285-.635s.094-.46.285-.636c.189-.177.416-.265.678-.265.264 0 .488.088.676.265.19.176.283.388.283.636z"/>
  <path d="m183.793 221.381h-2.922v-.375c.061-.006.135-.015.223-.024.086-.01.152-.026.197-.049.068-.036.117-.088.145-.157.029-.068.045-.169.045-.303v-2.291c0-.333-.063-.584-.184-.752-.123-.168-.305-.252-.543-.252-.131 0-.254.02-.367.059-.111.039-.223.097-.33.172-.096.064-.172.132-.229.2-.057.069-.105.129-.145.181v2.629c0 .115.016.21.049.287.033.076.088.135.162.174.053.029.119.055.197.078.08.023.156.039.232.049v.375h-2.984v-.375c.082-.006.164-.016.246-.026.084-.012.154-.026.213-.046.105-.036.178-.091.217-.165s.059-.171.059-.291v-2.819c0-.101-.027-.199-.078-.296-.053-.097-.119-.176-.203-.237-.059-.039-.133-.071-.223-.097-.088-.026-.186-.044-.293-.054v-.376l2.332-.125.074.073v.704h.02c.092-.081.201-.179.332-.293s.25-.207.361-.279c.121-.078.279-.145.475-.2s.404-.083.625-.083c.531 0 .93.15 1.195.451.266.3.398.699.398 1.195v2.388c0 .12.018.216.053.288.035.071.102.128.199.17.051.023.115.046.191.068.076.023.162.039.26.049v.375z"/>
  <use xlink:href="#ac" transform="translate(30.158)"/>
  <path d="m203.047 221.381h-4.016v-.375c.098-.006.254-.022.469-.049.213-.026.359-.053.438-.078.098-.033.174-.088.23-.167.055-.078.082-.186.082-.322v-3.103h-1.234v-.469h.268c.283 0 .525-.031.732-.093.205-.062.377-.137.512-.225.141-.091.254-.186.344-.283s.16-.184.211-.259h.855c-.01.212-.02.46-.031.744-.01.284-.016.539-.016.764v2.868c0 .118.025.22.076.307.051.086.123.152.217.198.084.039.227.074.424.107.199.033.346.053.439.059z"/>
 </g>
</svg>
