<?xml version="1.0"?>
<svg height="48" viewBox="0 0 48 48" width="48" xmlns="http://www.w3.org/2000/svg" xmlns:xlink="http://www.w3.org/1999/xlink">
<defs>
<linearGradient id="a" gradientUnits="userSpaceOnUse" x1="24" x2="24" y1="12" y2="45.3">
<stop offset="0" stop-color="#060"/>
<stop offset=".2" stop-color="#042"/>
<stop offset="1" stop-color="#3c3"/>
</linearGradient>
<linearGradient id="b" gradientUnits="userSpaceOnUse" x1="24" x2="24" y1="4.4" y2="36">
<stop offset="0" stop-color="#fff" stop-opacity=".9"/>
<stop offset="1" stop-color="#9cf" stop-opacity="0"/>
</linearGradient>
<radialGradient id="c" cx="22.1" cy="10.5" gradientUnits="userSpaceOnUse" r="30.3">
<stop offset="0" stop-color="#fff"/>
<stop offset=".6" stop-color="#5af"/>
<stop offset="1" stop-color="#c9e6ff"/>
</radialGradient>
<clipPath id="d">
<use xlink:href="#i"/>
</clipPath>
<linearGradient id="e" gradientUnits="userSpaceOnUse" x1="25.7" x2="20.23" y1="5" y2="32.93">
<stop offset="0" stop-color="#fff"/>
<stop offset=".5" stop-color="#090"/>
<stop offset="1"/>
</linearGradient>
<radialGradient id="f" cx="25.2" cy="26" gradientUnits="userSpaceOnUse" r="21">
<stop offset=".93" stop-opacity=".4"/>
<stop offset="1" stop-opacity="0"/>
</radialGradient>
<linearGradient id="g" gradientUnits="userSpaceOnUse" x1="2.5" x2="45.5" y1="24" y2="24">
<stop offset="0" stop-color="#05b"/>
<stop offset="1" stop-color="#03a"/>
</linearGradient>
</defs>
<circle cx="24" cy="24" fill="url(#g)" r="21.5"/>
<circle cx="25.2" cy="26" fill="url(#f)" r="21"/>
<circle cx="24" cy="24" fill="#b0d9ff" r="20.5"/>
<circle cx="24" cy="24" fill="url(#c)" r="19.8"/>
<g fill="url(#a)">
<path id="h" d="m17.43 6.4c-.1 0-.2.04-.31.1.26-.07.38-.1.31-.1m6.37 1.24l.06-.93-.98.06.13.87h.79m-11.09 16.1c-.2-.19-.07-1-.07-1s-2.95-1.55-6.17-2.49c-.4-.11-.2-.93.2-1.24l-.13-.87c-.07-.43.66-2.55 1.38-2.73.72-.19-.07 1.24-.07 1.24l-.72.44s.85.99 1.05.99.52-.5.52-.5l-.92-.62.85-.37.05-.33.14-.05 1.41-2.14c.98-.4 2.18-.89 2.33-.97.26-.12 2.1-1.18 2.43-1.43s1.05-.19 1.31-.19.66-.13.72-.81c.07-.68.33-.81.53-.62.2.18-.2.5.26.62s.85.44 1.18.12c.24-.23-.08-.49-.3-.68h3.64l.39-1.12-.85-.12-3.15-.31v-.37l-.25.04c.34-1.87 2.37-1.57.84-2.65-.09-.07-1.43 2.1-1.77 2.06-.61-.08-1.41-.09-1.58.11-.22.26.5-.91 1.13-1.26-1 .29-4.16 1.38-7.49 4.93-3.19 3.4-4.46 7.98-4.46 8.14 0 .31.66.44.72.81s-1.25 1.62-1.25 2.24c0 .29-.31 4.12.79 7.27 1.28 3.68 4.01 6.76 4.33 6.96l.66-.31s-1.51-2.67-1.58-2.92c-.06-.25 1.71-3.85 2.56-3.73s.66.37 1.18.06.85-2.86 1.44-3.11 1.25-.56 1.18-1.18-2.3-1.74-2.49-1.93m14.24-18.27l-1.77-.62.33 1 1.44-.37m-6.63 2.3c.2 0 4.14-2.61 3.74-2.67-.39-.06-.46 0-1.51-.12s-2.17 1.49-2.43 1.74-.17 1.06.2 1.06m18.07 18.74l.51-.66-.51-.18-.38.48-.44.66.38.18.44-.48m2.22 2.16l-.13-.96h-.82l-.06.72-.76-.12-.19-.78-.38-.24-.45.54-.44-.12-.13.42.51.12v3.89l1.8.43c-.04.07-.07.13-.08.16-.13.42.51.6.95.42.17-.06.69-.59 1.02-1.38.46-1.09.86-2.53.94-3.03l.21-.44-1.27.48-.7-.12m2.67-7.25l-.33-.64c-.39-2.22-1.29-5.05-3.22-7.98-2.91-4.41-10.99-6.95-10.99-6.95l-.44.54-.25-.42-.63-.24v.54l.57.48-.38.18-1.46.12-3.3 1.8.32 1.44-.38.12-.19.3 1.08 1.62.06.54-.89.18v1.08l-.51.12.06.84-4.32 3 .13 1.68c.32.42 2.8 2.94 2.8 2.94s2.86.12 3.49-.24c.64-.36.19.36.38.54s.25 1.44.44 1.56 0 .84.25 1.08.25 3.11.25 3.11 1.52 2.57 1.52 3.23-.06.6 1.14.54c1.21-.06 1.46-.54 1.71-.72.26-.18.26-.6.51-.96s.7-1.74 1.27-2.21c.57-.48 2.1-.84 2.22-1.68.13-.84.7-1.5.7-1.5l2.75-2.91-.08.39-.06 1.5.83-.3-.06-1.62-.3-.31.04-.05s-.19-.36-.44-.36-1.78.36-2.03.3-1.33-2.94-1.53-3.05c-.19-.12-1.4-2.1-1.4-2.1s2.79 3.35 3.24 4.67c.26.77 1.23.05 2.02-.75l.21.51.51-.12-.06-.6h.57v.9l-.19.48-.06.78.51.48.25-.42.82-.78.95-.48.25.48.13.66-.25.72-.51.42-.25 1.08v.54l-.57-.36-.06-1.14-.83.06-.38 1.02.57.84 1.33.18 1.08-1.02.13-1.98.48-.63c.31.8.54 1.65.54 2.43 0 .86.39-.6.06-3.22l.2-.26m-16.01-6.11l-3.43-.12 1.46-1.2h.76l1.21.84v.48m4.19-.42v.54h-1.46l.13.36-.89.12-.06.3-.64-.12-1.14-.24.19-.3.19-.36.64-.66.25.48.95-.06.51-.54 1.97.36-.63.12m.13-.78l-.76.12-.13-.54.95-.12.13-.54.7.72-.89.36m3.69 18.63l-.44.36.06.9h.57v-.78l.51-.66v-1.38l-.32-.06-.38 1.62m-4.26-1.8s-.45.12.06.3 2.54-2.93 2.54-2.93l-1.72 1.08-.89 1.56m-3.46 11.48l-.38-.36-.76-.12-.13.36-1.02-.12-.06-.48h-.76l-.83.48h-1.46l-.13-.36-2.35-.24-.38.36-.95-.24-.13-.85-.44-.06-.51.91-1.71-.06c.31.15 2.87 1.67 6.79 1.99 5.21.42 7.68-.84 7.68-.84l-.19-.18-2.29-.18z"/>
</g>
<path id="i" d="m23.93 20c6.77 0 12.66-2.33 15.69-5.77-3.05-5.83-8.95-9.8-15.72-9.8-6.72 0-12.62 3.96-15.69 9.77 3.02 3.46 8.93 5.8 15.72 5.8z" fill="url(#b)"/>
<use clip-path="url(#d)" fill="url(#e)" xlink:href="#h"/>
</svg>
