<?xml version="1.0" encoding="UTF-8" standalone="no"?>
<!-- Created with Inkscape (http://www.inkscape.org/) -->
<svg
   xmlns="http://www.w3.org/2000/svg"
   version="1.0"
   width="40"
   height="40"
   viewBox="0 0 256 256"
   id="svg1"
   xml:space="preserve">
    <rect
   width="256"
   height="256"
   x="0"
   y="0"
   id="_x3C_Slice_x3E_"
   style="fill:none" />
      <linearGradient
   x1="36.876953"
   y1="219.37793"
   x2="210.37071"
   y2="45.884171"
   id="XMLID_5_"
   gradientUnits="userSpaceOnUse">
        <stop
   id="stop113"
   style="stop-color:#006a00;stop-opacity:1"
   offset="0" />
        <stop
   id="stop115"
   style="stop-color:#003333;stop-opacity:1"
   offset="1" />
        <midPointStop
   id="midPointStop117"
   style="stop-color:#006A00"
   offset="0" />
        <midPointStop
   id="midPointStop119"
   style="stop-color:#006A00"
   offset="0.5" />
        <midPointStop
   id="midPointStop121"
   style="stop-color:#003333"
   offset="1" />
      </linearGradient>
      <path
   d="M 243.1709,116.1748 L 135.74512,25.341797 C 131.25293,21.545898 124.73633,21.546875 120.24805,25.341797 L 72,66.138672 L 72,41.501953 L 37.5,41.501953 L 37.5,95.310547 L 12.828613,116.17188 C 10.128418,118.45508 8.5800781,121.80078 8.5800781,125.35156 C 8.5800781,126.75879 8.824707,128.1416 9.3071289,129.45996 C 11.031738,134.1709 15.560059,137.33594 20.576172,137.33594 C 20.576172,137.33594 36.13916,137.33594 41.436035,137.33594 C 42.03418,144.03906 49.045899,222.57129 49.045899,222.57129 C 49.604004,228.80469 54.742676,233.50488 60.999024,233.50488 L 105.66699,233.50488 C 105.66699,233.50488 105.66699,162.20703 105.66699,155.00195 C 111.93652,155.00195 144.06348,155.00195 150.33301,155.00195 C 150.33301,162.20703 150.33301,233.50488 150.33301,233.50488 L 194.99805,233.50488 C 201.25586,233.50488 206.39453,228.80469 206.95117,222.57227 C 206.95117,222.57031 213.07227,154.0166 214.56152,137.33594 C 219.85742,137.33594 235.41992,137.33594 235.41992,137.33594 C 240.43457,137.33594 244.96387,134.17188 246.68945,129.46191 C 247.17383,128.13867 247.41992,126.75098 247.41992,125.33691 C 247.41992,121.79785 245.87109,118.45898 243.1709,116.1748 z"
   id="path124"
   style="fill:url(#XMLID_5_)" />
      <linearGradient
   x1="57.514648"
   y1="82.742188"
   x2="198.48439"
   y2="223.71194"
   id="XMLID_6_"
   gradientUnits="userSpaceOnUse">
        <stop
   id="stop128"
   style="stop-color:#ffffff;stop-opacity:1"
   offset="0" />
        <stop
   id="stop130"
   style="stop-color:#f0f0f0;stop-opacity:1"
   offset="1" />
        <midPointStop
   id="midPointStop132"
   style="stop-color:#FFFFFF"
   offset="0" />
        <midPointStop
   id="midPointStop134"
   style="stop-color:#FFFFFF"
   offset="0.5" />
        <midPointStop
   id="midPointStop136"
   style="stop-color:#F0F0F0"
   offset="1" />
      </linearGradient>
      <path
   d="M 125.41357,31.451172 L 17.994141,122.28125 C 17.095215,123.04102 16.580078,124.16016 16.580078,125.35156 C 16.580078,125.81836 16.660645,126.27539 16.819824,126.71094 C 17.385742,128.25586 18.930176,129.33594 20.576172,129.33594 L 48.753418,129.33594 L 57.01416,221.85938 C 57.203125,223.9707 58.878906,225.50488 60.999024,225.50488 C 60.999024,225.50488 86.884766,225.50488 97.666992,225.50488 C 97.666992,212.59961 97.666992,147.00195 97.666992,147.00195 L 158.33301,147.00195 C 158.33301,147.00195 158.33301,212.59961 158.33301,225.50488 C 169.11523,225.50488 194.99805,225.50488 194.99805,225.50488 C 197.11816,225.50488 198.79395,223.97266 198.98242,221.86035 C 198.98242,221.86035 198.97266,222.09961 198.96289,222.30859 C 199.03125,221.32031 199.50684,215.98828 202.83887,178.66895 L 207.24414,129.33594 L 235.41992,129.33594 C 237.06641,129.33594 238.61133,128.25586 239.17773,126.70996 C 239.33789,126.27148 239.41992,125.80859 239.41992,125.33691 C 239.41992,124.15625 238.9043,123.04297 238.00391,122.28223 L 130.58008,31.450195 C 129.08301,30.186523 126.90967,30.185547 125.41357,31.451172 z"
   id="path139"
   style="fill:url(#XMLID_6_)" />
      <linearGradient
   x1="69.835938"
   y1="94.678711"
   x2="191.58015"
   y2="216.42293"
   id="XMLID_7_"
   gradientUnits="userSpaceOnUse">
        <stop
   id="stop143"
   style="stop-color:#ffffff;stop-opacity:1"
   offset="0" />
        <stop
   id="stop145"
   style="stop-color:#dfdfdf;stop-opacity:1"
   offset="1" />
        <midPointStop
   id="midPointStop147"
   style="stop-color:#FFFFFF"
   offset="0" />
        <midPointStop
   id="midPointStop149"
   style="stop-color:#FFFFFF"
   offset="0.5" />
        <midPointStop
   id="midPointStop151"
   style="stop-color:#DFDFDF"
   offset="1" />
      </linearGradient>
      <path
   d="M 122.83301,44.110352 L 31.503906,121.33594 C 31.503906,121.33594 55,121.33594 56.073242,121.33594 C 57.18457,133.78711 64.65918,217.50488 64.65918,217.50488 L 89.668945,217.50488 C 89.668945,217.50488 89.668945,151.90723 89.668945,139.00195 C 101.76367,139.00195 154.24023,139.00195 166.33496,139.00195 C 166.33496,151.90723 166.33496,217.50488 166.33496,217.50488 L 191.34277,217.50488 C 191.34277,217.50488 198.81738,133.78711 199.92871,121.33594 C 201.00098,121.33594 224.49609,121.33594 224.49609,121.33594 L 127.99902,39.743164 L 122.83301,44.110352 z"
   id="path154"
   style="fill:url(#XMLID_7_)" />
      <linearGradient
   x1="27.443848"
   y1="51.553711"
   x2="171.27025"
   y2="195.38013"
   id="XMLID_8_"
   gradientUnits="userSpaceOnUse">
        <stop
   id="stop158"
   style="stop-color:#99ff66;stop-opacity:1"
   offset="0" />
        <stop
   id="stop160"
   style="stop-color:#009900;stop-opacity:1"
   offset="1" />
        <midPointStop
   id="midPointStop162"
   style="stop-color:#99FF66"
   offset="0" />
        <midPointStop
   id="midPointStop164"
   style="stop-color:#99FF66"
   offset="0.5" />
        <midPointStop
   id="midPointStop166"
   style="stop-color:#009900"
   offset="1" />
      </linearGradient>
      <path
   d="M 53.355469,113.33594 C 57.680664,113.33594 63.390625,113.33594 63.390625,113.33594 C 63.390625,113.33594 70.458496,192.50293 71.976563,209.50488 C 76.041992,209.50488 76.901367,209.50488 81.668945,209.50488 C 81.668945,189.21973 81.668945,131.00195 81.668945,131.00195 L 174.33496,131.00195 C 174.33496,131.00195 174.33496,189.21973 174.33496,209.50488 C 179.10156,209.50488 179.96094,209.50488 184.02539,209.50488 C 184.59375,203.12012 192.61133,113.33594 192.61133,113.33594 C 192.61133,113.33594 198.31836,113.33594 202.64453,113.33594 C 175.96094,90.773438 137.98926,58.666992 127.99902,50.219727 C 118.00879,58.666992 80.03418,90.776367 53.355469,113.33594 z"
   id="path169"
   style="fill:url(#XMLID_8_)" />
</svg>